<svg width="232" height="48" viewBox="0 0 232 48" fill="none" xmlns="http://www.w3.org/2000/svg">
<rect width="232" height="48" rx="4" fill="#006AFF"/>
<path d="M37 26H30V33H37V26Z" stroke="white" stroke-width="2" stroke-linecap="round" stroke-linejoin="round"/>
<path d="M26 26H19V33H26V26Z" stroke="white" stroke-width="2" stroke-linecap="round" stroke-linejoin="round"/>
<path d="M37 15H30V22H37V15Z" stroke="white" stroke-width="2" stroke-linecap="round" stroke-linejoin="round"/>
<path d="M26 15H19V22H26V15Z" stroke="white" stroke-width="2" stroke-linecap="round" stroke-linejoin="round"/>
<path d="M57.0455 30H53.2784V18.3636H57.1648C58.3049 18.3636 59.2841 18.5966 60.1023 19.0625C60.9205 19.5246 61.5473 20.1894 61.983 21.0568C62.4223 21.9205 62.642 22.9564 62.642 24.1648C62.642 25.3769 62.4205 26.4186 61.9773 27.2898C61.5379 28.161 60.9015 28.8314 60.0682 29.3011C59.2348 29.767 58.2273 30 57.0455 30ZM55.0341 28.4659H56.9489C57.8352 28.4659 58.572 28.2992 59.1591 27.9659C59.7462 27.6288 60.1856 27.142 60.4773 26.5057C60.7689 25.8655 60.9148 25.0852 60.9148 24.1648C60.9148 23.2519 60.7689 22.4773 60.4773 21.8409C60.1894 21.2045 59.7595 20.7216 59.1875 20.392C58.6155 20.0625 57.9053 19.8977 57.0568 19.8977H55.0341V28.4659ZM67.2287 30.1932C66.6757 30.1932 66.1757 30.0909 65.7287 29.8864C65.2817 29.678 64.9276 29.3769 64.6662 28.983C64.4086 28.589 64.2798 28.1061 64.2798 27.5341C64.2798 27.0417 64.3745 26.6364 64.5639 26.3182C64.7533 26 65.009 25.7481 65.331 25.5625C65.6529 25.3769 66.0128 25.2367 66.4105 25.142C66.8082 25.0473 67.2135 24.9754 67.6264 24.9261C68.1491 24.8655 68.5734 24.8163 68.8991 24.7784C69.2249 24.7367 69.4616 24.6705 69.6094 24.5795C69.7571 24.4886 69.831 24.3409 69.831 24.1364V24.0966C69.831 23.6004 69.6908 23.2159 69.4105 22.9432C69.134 22.6705 68.7211 22.5341 68.1719 22.5341C67.5999 22.5341 67.1491 22.661 66.8196 22.9148C66.4938 23.1648 66.2685 23.4432 66.1435 23.75L64.5469 23.3864C64.7363 22.8561 65.0128 22.428 65.3764 22.1023C65.7438 21.7727 66.1662 21.5341 66.6435 21.3864C67.1207 21.2348 67.6226 21.1591 68.1491 21.1591C68.4976 21.1591 68.867 21.2008 69.2571 21.2841C69.651 21.3636 70.0185 21.5114 70.3594 21.7273C70.7041 21.9432 70.9863 22.2519 71.206 22.6534C71.4257 23.0511 71.5355 23.5682 71.5355 24.2045V30H69.8764V28.8068H69.8082C69.6984 29.0265 69.5336 29.2424 69.3139 29.4545C69.0942 29.6667 68.812 29.8428 68.4673 29.983C68.1226 30.1231 67.7098 30.1932 67.2287 30.1932ZM67.598 28.8295C68.0677 28.8295 68.4692 28.7367 68.8026 28.5511C69.1397 28.3655 69.3954 28.1231 69.5696 27.8239C69.7476 27.5208 69.8366 27.197 69.8366 26.8523V25.7273C69.776 25.7879 69.6586 25.8447 69.4844 25.8977C69.3139 25.947 69.1188 25.9905 68.8991 26.0284C68.6795 26.0625 68.4654 26.0947 68.2571 26.125C68.0488 26.1515 67.8745 26.1742 67.7344 26.1932C67.4048 26.2348 67.1037 26.3049 66.831 26.4034C66.562 26.5019 66.3461 26.6439 66.1832 26.8295C66.0241 27.0114 65.9446 27.2538 65.9446 27.5568C65.9446 27.9773 66.0999 28.2955 66.4105 28.5114C66.7211 28.7235 67.117 28.8295 67.598 28.8295ZM80.3381 23.4034L78.7983 23.6761C78.7339 23.4792 78.6316 23.2917 78.4915 23.1136C78.3551 22.9356 78.1695 22.7898 77.9347 22.6761C77.6998 22.5625 77.4063 22.5057 77.054 22.5057C76.5729 22.5057 76.1714 22.6136 75.8494 22.8295C75.5275 23.0417 75.3665 23.3163 75.3665 23.6534C75.3665 23.9451 75.4744 24.1799 75.6903 24.358C75.9063 24.536 76.2547 24.6818 76.7358 24.7955L78.1222 25.1136C78.9252 25.2992 79.5237 25.5852 79.9176 25.9716C80.3116 26.358 80.5085 26.8598 80.5085 27.4773C80.5085 28 80.357 28.4659 80.054 28.875C79.7547 29.2803 79.3362 29.5985 78.7983 29.8295C78.2642 30.0606 77.6449 30.1761 76.9403 30.1761C75.9631 30.1761 75.1657 29.9678 74.5483 29.5511C73.9309 29.1307 73.5521 28.5341 73.4119 27.7614L75.054 27.5114C75.1563 27.9394 75.3665 28.2633 75.6847 28.483C76.0028 28.6989 76.4176 28.8068 76.929 28.8068C77.4858 28.8068 77.9309 28.6913 78.2642 28.4602C78.5975 28.2254 78.7642 27.9394 78.7642 27.6023C78.7642 27.3295 78.6619 27.1004 78.4574 26.9148C78.2566 26.7292 77.9479 26.589 77.5312 26.4943L76.054 26.1705C75.2396 25.9848 74.6373 25.6894 74.2472 25.2841C73.8608 24.8788 73.6676 24.3655 73.6676 23.7443C73.6676 23.2292 73.8116 22.7784 74.0994 22.392C74.3873 22.0057 74.785 21.7045 75.2926 21.4886C75.8002 21.2689 76.3816 21.1591 77.0369 21.1591C77.9801 21.1591 78.7225 21.3636 79.2642 21.7727C79.8059 22.178 80.1638 22.7216 80.3381 23.4034ZM84.0753 24.8182V30H82.3764V18.3636H84.0526V22.6932H84.1605C84.3651 22.2235 84.6776 21.8504 85.098 21.5739C85.5185 21.2973 86.0677 21.1591 86.7457 21.1591C87.3442 21.1591 87.867 21.2822 88.3139 21.5284C88.7647 21.7746 89.1132 22.142 89.3594 22.6307C89.6094 23.1155 89.7344 23.7216 89.7344 24.4489V30H88.0355V24.6534C88.0355 24.0133 87.8707 23.517 87.5412 23.1648C87.2116 22.8087 86.7533 22.6307 86.1662 22.6307C85.7647 22.6307 85.4048 22.7159 85.0866 22.8864C84.7723 23.0568 84.5241 23.3068 84.3423 23.6364C84.1643 23.9621 84.0753 24.3561 84.0753 24.8182ZM92.1378 30V18.3636H93.8366V22.6875H93.9389C94.0374 22.5057 94.1795 22.2955 94.3651 22.0568C94.5507 21.8182 94.8082 21.6098 95.1378 21.4318C95.4673 21.25 95.9029 21.1591 96.4446 21.1591C97.1491 21.1591 97.7779 21.3371 98.331 21.6932C98.884 22.0492 99.3177 22.5625 99.6321 23.233C99.9503 23.9034 100.109 24.7102 100.109 25.6534C100.109 26.5966 99.9522 27.4053 99.6378 28.0795C99.3234 28.75 98.8916 29.267 98.3423 29.6307C97.7931 29.9905 97.1662 30.1705 96.4616 30.1705C95.9313 30.1705 95.4976 30.0814 95.1605 29.9034C94.8272 29.7254 94.5658 29.517 94.3764 29.2784C94.187 29.0398 94.0412 28.8277 93.9389 28.642H93.7969V30H92.1378ZM93.8026 25.6364C93.8026 26.25 93.8916 26.7879 94.0696 27.25C94.2476 27.7121 94.5052 28.0739 94.8423 28.3352C95.1795 28.5928 95.5923 28.7216 96.081 28.7216C96.5885 28.7216 97.0128 28.5871 97.3537 28.3182C97.6946 28.0455 97.9522 27.6761 98.1264 27.2102C98.3045 26.7443 98.3935 26.2197 98.3935 25.6364C98.3935 25.0606 98.3063 24.5436 98.1321 24.0852C97.9616 23.6269 97.7041 23.2652 97.3594 23C97.0185 22.7348 96.5923 22.6023 96.081 22.6023C95.5885 22.6023 95.1719 22.7292 94.831 22.983C94.4938 23.2367 94.2382 23.5909 94.0639 24.0455C93.8897 24.5 93.8026 25.0303 93.8026 25.6364ZM105.693 30.1761C104.875 30.1761 104.161 29.9886 103.551 29.6136C102.941 29.2386 102.468 28.714 102.131 28.0398C101.794 27.3655 101.625 26.5777 101.625 25.6761C101.625 24.7708 101.794 23.9792 102.131 23.3011C102.468 22.6231 102.941 22.0966 103.551 21.7216C104.161 21.3466 104.875 21.1591 105.693 21.1591C106.511 21.1591 107.225 21.3466 107.835 21.7216C108.445 22.0966 108.919 22.6231 109.256 23.3011C109.593 23.9792 109.761 24.7708 109.761 25.6761C109.761 26.5777 109.593 27.3655 109.256 28.0398C108.919 28.714 108.445 29.2386 107.835 29.6136C107.225 29.9886 106.511 30.1761 105.693 30.1761ZM105.699 28.75C106.229 28.75 106.669 28.6098 107.017 28.3295C107.366 28.0492 107.623 27.6761 107.79 27.2102C107.96 26.7443 108.045 26.2311 108.045 25.6705C108.045 25.1136 107.96 24.6023 107.79 24.1364C107.623 23.6667 107.366 23.2898 107.017 23.0057C106.669 22.7216 106.229 22.5795 105.699 22.5795C105.165 22.5795 104.722 22.7216 104.369 23.0057C104.021 23.2898 103.761 23.6667 103.591 24.1364C103.424 24.6023 103.341 25.1136 103.341 25.6705C103.341 26.2311 103.424 26.7443 103.591 27.2102C103.761 27.6761 104.021 28.0492 104.369 28.3295C104.722 28.6098 105.165 28.75 105.699 28.75ZM114.197 30.1932C113.644 30.1932 113.144 30.0909 112.697 29.8864C112.25 29.678 111.896 29.3769 111.635 28.983C111.377 28.589 111.249 28.1061 111.249 27.5341C111.249 27.0417 111.343 26.6364 111.533 26.3182C111.722 26 111.978 25.7481 112.3 25.5625C112.622 25.3769 112.982 25.2367 113.379 25.142C113.777 25.0473 114.182 24.9754 114.595 24.9261C115.118 24.8655 115.542 24.8163 115.868 24.7784C116.194 24.7367 116.43 24.6705 116.578 24.5795C116.726 24.4886 116.8 24.3409 116.8 24.1364V24.0966C116.8 23.6004 116.66 23.2159 116.379 22.9432C116.103 22.6705 115.69 22.5341 115.141 22.5341C114.569 22.5341 114.118 22.661 113.788 22.9148C113.463 23.1648 113.237 23.4432 113.112 23.75L111.516 23.3864C111.705 22.8561 111.982 22.428 112.345 22.1023C112.713 21.7727 113.135 21.5341 113.612 21.3864C114.089 21.2348 114.591 21.1591 115.118 21.1591C115.466 21.1591 115.836 21.2008 116.226 21.2841C116.62 21.3636 116.987 21.5114 117.328 21.7273C117.673 21.9432 117.955 22.2519 118.175 22.6534C118.394 23.0511 118.504 23.5682 118.504 24.2045V30H116.845V28.8068H116.777C116.667 29.0265 116.502 29.2424 116.283 29.4545C116.063 29.6667 115.781 29.8428 115.436 29.983C115.091 30.1231 114.679 30.1932 114.197 30.1932ZM114.567 28.8295C115.036 28.8295 115.438 28.7367 115.771 28.5511C116.108 28.3655 116.364 28.1231 116.538 27.8239C116.716 27.5208 116.805 27.197 116.805 26.8523V25.7273C116.745 25.7879 116.627 25.8447 116.453 25.8977C116.283 25.947 116.088 25.9905 115.868 26.0284C115.648 26.0625 115.434 26.0947 115.226 26.125C115.018 26.1515 114.843 26.1742 114.703 26.1932C114.374 26.2348 114.072 26.3049 113.8 26.4034C113.531 26.5019 113.315 26.6439 113.152 26.8295C112.993 27.0114 112.913 27.2538 112.913 27.5568C112.913 27.9773 113.069 28.2955 113.379 28.5114C113.69 28.7235 114.086 28.8295 114.567 28.8295ZM120.767 30V21.2727H122.409V22.6591H122.5C122.659 22.1894 122.939 21.8201 123.341 21.5511C123.746 21.2784 124.205 21.142 124.716 21.142C124.822 21.142 124.947 21.1458 125.091 21.1534C125.239 21.161 125.354 21.1705 125.438 21.1818V22.8068C125.369 22.7879 125.248 22.767 125.074 22.7443C124.9 22.7178 124.725 22.7045 124.551 22.7045C124.15 22.7045 123.792 22.7898 123.477 22.9602C123.167 23.1269 122.92 23.3598 122.739 23.6591C122.557 23.9545 122.466 24.2917 122.466 24.6705V30H120.767ZM129.862 30.1705C129.158 30.1705 128.529 29.9905 127.976 29.6307C127.427 29.267 126.995 28.75 126.68 28.0795C126.37 27.4053 126.214 26.5966 126.214 25.6534C126.214 24.7102 126.372 23.9034 126.686 23.233C127.004 22.5625 127.44 22.0492 127.993 21.6932C128.546 21.3371 129.173 21.1591 129.874 21.1591C130.415 21.1591 130.851 21.25 131.18 21.4318C131.514 21.6098 131.771 21.8182 131.953 22.0568C132.139 22.2955 132.283 22.5057 132.385 22.6875H132.487V18.3636H134.186V30H132.527V28.642H132.385C132.283 28.8277 132.135 29.0398 131.942 29.2784C131.752 29.517 131.491 29.7254 131.158 29.9034C130.824 30.0814 130.393 30.1705 129.862 30.1705ZM130.237 28.7216C130.726 28.7216 131.139 28.5928 131.476 28.3352C131.817 28.0739 132.074 27.7121 132.249 27.25C132.427 26.7879 132.516 26.25 132.516 25.6364C132.516 25.0303 132.429 24.5 132.254 24.0455C132.08 23.5909 131.824 23.2367 131.487 22.983C131.15 22.7292 130.733 22.6023 130.237 22.6023C129.726 22.6023 129.3 22.7348 128.959 23C128.618 23.2652 128.36 23.6269 128.186 24.0852C128.016 24.5436 127.93 25.0606 127.93 25.6364C127.93 26.2197 128.018 26.7443 128.192 27.2102C128.366 27.6761 128.624 28.0455 128.964 28.3182C129.309 28.5871 129.733 28.7216 130.237 28.7216Z" fill="white"/>
<rect y="6" width="6" height="36" rx="3" fill="white"/>
</svg>
