<svg width="192" height="48" viewBox="0 0 192 48" fill="none" xmlns="http://www.w3.org/2000/svg">
<g opacity="0.75">
<path d="M27.9999 26.3466C29.2959 26.3466 30.3465 25.296 30.3465 24C30.3465 22.704 29.2959 21.6534 27.9999 21.6534C26.704 21.6534 25.6534 22.704 25.6534 24C25.6534 25.296 26.704 26.3466 27.9999 26.3466Z" stroke="#454545" stroke-width="2" stroke-linecap="round" stroke-linejoin="round"/>
<path d="M34.0545 26.4545C33.9456 26.7013 33.9131 26.9751 33.9613 27.2405C34.0094 27.5059 34.1359 27.7508 34.3245 27.9436L34.3736 27.9927C34.5258 28.1447 34.6465 28.3252 34.7288 28.5238C34.8112 28.7225 34.8536 28.9354 34.8536 29.1505C34.8536 29.3655 34.8112 29.5784 34.7288 29.7771C34.6465 29.9757 34.5258 30.1562 34.3736 30.3082C34.2217 30.4603 34.0412 30.581 33.8425 30.6634C33.6439 30.7457 33.431 30.7881 33.2159 30.7881C33.0009 30.7881 32.7879 30.7457 32.5893 30.6634C32.3906 30.581 32.2102 30.4603 32.0582 30.3082L32.0091 30.2591C31.8163 30.0705 31.5714 29.9439 31.3059 29.8958C31.0405 29.8477 30.7668 29.8802 30.52 29.9891C30.278 30.0928 30.0716 30.265 29.9263 30.4845C29.7809 30.704 29.7029 30.9613 29.7018 31.2245V31.3636C29.7018 31.7976 29.5294 32.2138 29.2225 32.5207C28.9157 32.8276 28.4994 33 28.0655 33C27.6315 33 27.2152 32.8276 26.9084 32.5207C26.6015 32.2138 26.4291 31.7976 26.4291 31.3636V31.29C26.4228 31.0192 26.3351 30.7565 26.1775 30.5362C26.0199 30.3159 25.7997 30.1481 25.5455 30.0545C25.2987 29.9456 25.0249 29.9131 24.7595 29.9613C24.4941 30.0094 24.2492 30.1359 24.0564 30.3245L24.0073 30.3736C23.8553 30.5258 23.6748 30.6465 23.4762 30.7288C23.2775 30.8112 23.0646 30.8536 22.8495 30.8536C22.6345 30.8536 22.4216 30.8112 22.2229 30.7288C22.0243 30.6465 21.8438 30.5258 21.6918 30.3736C21.5397 30.2217 21.419 30.0412 21.3366 29.8425C21.2543 29.6439 21.2119 29.431 21.2119 29.2159C21.2119 29.0009 21.2543 28.7879 21.3366 28.5893C21.419 28.3906 21.5397 28.2102 21.6918 28.0582L21.7409 28.0091C21.9295 27.8163 22.0561 27.5714 22.1042 27.3059C22.1523 27.0405 22.1198 26.7668 22.0109 26.52C21.9072 26.278 21.735 26.0716 21.5155 25.9263C21.296 25.7809 21.0387 25.7029 20.7755 25.7018H20.6364C20.2024 25.7018 19.7862 25.5294 19.4793 25.2225C19.1724 24.9157 19 24.4994 19 24.0655C19 23.6315 19.1724 23.2152 19.4793 22.9084C19.7862 22.6015 20.2024 22.4291 20.6364 22.4291H20.71C20.9808 22.4228 21.2435 22.3351 21.4638 22.1775C21.6841 22.0199 21.8519 21.7997 21.9455 21.5455C22.0544 21.2987 22.0869 21.0249 22.0387 20.7595C21.9906 20.4941 21.8641 20.2492 21.6755 20.0564L21.6264 20.0073C21.4742 19.8553 21.3535 19.6748 21.2712 19.4762C21.1888 19.2775 21.1464 19.0646 21.1464 18.8495C21.1464 18.6345 21.1888 18.4216 21.2712 18.2229C21.3535 18.0243 21.4742 17.8438 21.6264 17.6918C21.7783 17.5397 21.9588 17.419 22.1575 17.3366C22.3561 17.2543 22.569 17.2119 22.7841 17.2119C22.9991 17.2119 23.2121 17.2543 23.4107 17.3366C23.6094 17.419 23.7898 17.5397 23.9418 17.6918L23.9909 17.7409C24.1837 17.9295 24.4286 18.0561 24.6941 18.1042C24.9595 18.1523 25.2332 18.1198 25.48 18.0109H25.5455C25.7874 17.9072 25.9938 17.735 26.1392 17.5155C26.2846 17.296 26.3626 17.0387 26.3636 16.7755V16.6364C26.3636 16.2024 26.536 15.7862 26.8429 15.4793C27.1498 15.1724 27.566 15 28 15C28.434 15 28.8502 15.1724 29.1571 15.4793C29.464 15.7862 29.6364 16.2024 29.6364 16.6364V16.71C29.6374 16.9733 29.7154 17.2305 29.8608 17.45C30.0062 17.6695 30.2126 17.8417 30.4545 17.9455C30.7013 18.0544 30.9751 18.0869 31.2405 18.0387C31.5059 17.9906 31.7508 17.8641 31.9436 17.6755L31.9927 17.6264C32.1447 17.4742 32.3252 17.3535 32.5238 17.2712C32.7225 17.1888 32.9354 17.1464 33.1505 17.1464C33.3655 17.1464 33.5784 17.1888 33.7771 17.2712C33.9757 17.3535 34.1562 17.4742 34.3082 17.6264C34.4603 17.7783 34.581 17.9588 34.6634 18.1575C34.7457 18.3561 34.7881 18.569 34.7881 18.7841C34.7881 18.9991 34.7457 19.2121 34.6634 19.4107C34.581 19.6094 34.4603 19.7898 34.3082 19.9418L34.2591 19.9909C34.0705 20.1837 33.9439 20.4286 33.8958 20.6941C33.8477 20.9595 33.8802 21.2332 33.9891 21.48V21.5455C34.0928 21.7874 34.265 21.9938 34.4845 22.1392C34.704 22.2846 34.9613 22.3626 35.2245 22.3636H35.3636C35.7976 22.3636 36.2138 22.536 36.5207 22.8429C36.8276 23.1498 37 23.566 37 24C37 24.434 36.8276 24.8502 36.5207 25.1571C36.2138 25.464 35.7976 25.6364 35.3636 25.6364H35.29C35.0267 25.6374 34.7695 25.7154 34.55 25.8608C34.3305 26.0062 34.1583 26.2126 34.0545 26.4545V26.4545Z" stroke="#454545" stroke-width="2" stroke-linecap="round" stroke-linejoin="round"/>
<path d="M62.7727 22H61.3636C61.2803 21.5947 61.1345 21.2386 60.9261 20.9318C60.7216 20.625 60.4716 20.3674 60.1761 20.1591C59.8845 19.947 59.5606 19.7879 59.2045 19.6818C58.8485 19.5758 58.4773 19.5227 58.0909 19.5227C57.3864 19.5227 56.7481 19.7008 56.1761 20.0568C55.608 20.4129 55.1553 20.9375 54.8182 21.6307C54.4848 22.3239 54.3182 23.1742 54.3182 24.1818C54.3182 25.1894 54.4848 26.0398 54.8182 26.733C55.1553 27.4261 55.608 27.9508 56.1761 28.3068C56.7481 28.6629 57.3864 28.8409 58.0909 28.8409C58.4773 28.8409 58.8485 28.7879 59.2045 28.6818C59.5606 28.5758 59.8845 28.4186 60.1761 28.2102C60.4716 27.9981 60.7216 27.7386 60.9261 27.4318C61.1345 27.1212 61.2803 26.7652 61.3636 26.3636H62.7727C62.6667 26.9583 62.4735 27.4905 62.1932 27.9602C61.9129 28.4299 61.5644 28.8295 61.1477 29.1591C60.7311 29.4848 60.2633 29.733 59.7443 29.9034C59.2292 30.0739 58.678 30.1591 58.0909 30.1591C57.0985 30.1591 56.2159 29.9167 55.4432 29.4318C54.6705 28.947 54.0625 28.2576 53.6193 27.3636C53.1761 26.4697 52.9545 25.4091 52.9545 24.1818C52.9545 22.9545 53.1761 21.8939 53.6193 21C54.0625 20.1061 54.6705 19.4167 55.4432 18.9318C56.2159 18.447 57.0985 18.2045 58.0909 18.2045C58.678 18.2045 59.2292 18.2898 59.7443 18.4602C60.2633 18.6307 60.7311 18.8807 61.1477 19.2102C61.5644 19.536 61.9129 19.9337 62.1932 20.4034C62.4735 20.8693 62.6667 21.4015 62.7727 22ZM68.4134 30.1818C67.6255 30.1818 66.9342 29.9943 66.3395 29.6193C65.7486 29.2443 65.2865 28.7197 64.9531 28.0455C64.6236 27.3712 64.4588 26.5833 64.4588 25.6818C64.4588 24.7727 64.6236 23.9792 64.9531 23.3011C65.2865 22.6231 65.7486 22.0966 66.3395 21.7216C66.9342 21.3466 67.6255 21.1591 68.4134 21.1591C69.2012 21.1591 69.8906 21.3466 70.4815 21.7216C71.0762 22.0966 71.5384 22.6231 71.8679 23.3011C72.2012 23.9792 72.3679 24.7727 72.3679 25.6818C72.3679 26.5833 72.2012 27.3712 71.8679 28.0455C71.5384 28.7197 71.0762 29.2443 70.4815 29.6193C69.8906 29.9943 69.2012 30.1818 68.4134 30.1818ZM68.4134 28.9773C69.0118 28.9773 69.5043 28.8239 69.8906 28.517C70.277 28.2102 70.563 27.8068 70.7486 27.3068C70.9342 26.8068 71.027 26.2652 71.027 25.6818C71.027 25.0985 70.9342 24.5549 70.7486 24.0511C70.563 23.5473 70.277 23.1402 69.8906 22.8295C69.5043 22.5189 69.0118 22.3636 68.4134 22.3636C67.8149 22.3636 67.3224 22.5189 66.9361 22.8295C66.5497 23.1402 66.2637 23.5473 66.0781 24.0511C65.8925 24.5549 65.7997 25.0985 65.7997 25.6818C65.7997 26.2652 65.8925 26.8068 66.0781 27.3068C66.2637 27.8068 66.5497 28.2102 66.9361 28.517C67.3224 28.8239 67.8149 28.9773 68.4134 28.9773ZM75.7557 24.75V30H74.4148V21.2727H75.7102V22.6364H75.8239C76.0284 22.1932 76.339 21.8371 76.7557 21.5682C77.1723 21.2955 77.7102 21.1591 78.3693 21.1591C78.9602 21.1591 79.4773 21.2803 79.9205 21.5227C80.3636 21.7614 80.7083 22.125 80.9545 22.6136C81.2008 23.0985 81.3239 23.7121 81.3239 24.4545V30H79.983V24.5455C79.983 23.8598 79.8049 23.3258 79.4489 22.9432C79.0928 22.5568 78.6042 22.3636 77.983 22.3636C77.5549 22.3636 77.1723 22.4564 76.8352 22.642C76.5019 22.8277 76.2386 23.0985 76.0455 23.4545C75.8523 23.8106 75.7557 24.2424 75.7557 24.75ZM87.6605 21.2727V22.4091H82.956V21.2727H87.6605ZM84.3651 30V20.0682C84.3651 19.5682 84.4825 19.1515 84.7173 18.8182C84.9522 18.4848 85.2571 18.2348 85.6321 18.0682C86.0071 17.9015 86.4029 17.8182 86.8196 17.8182C87.1491 17.8182 87.4181 17.8447 87.6264 17.8977C87.8348 17.9508 87.9901 18 88.0923 18.0455L87.706 19.2045C87.6378 19.1818 87.5431 19.1534 87.4219 19.1193C87.3045 19.0852 87.1491 19.0682 86.956 19.0682C86.5128 19.0682 86.1927 19.1799 85.9957 19.4034C85.8026 19.6269 85.706 19.9545 85.706 20.3864V30H84.3651ZM89.5398 30V21.2727H90.8807V30H89.5398ZM90.2216 19.8182C89.9602 19.8182 89.7348 19.7292 89.5455 19.5511C89.3598 19.3731 89.267 19.1591 89.267 18.9091C89.267 18.6591 89.3598 18.4451 89.5455 18.267C89.7348 18.089 89.9602 18 90.2216 18C90.483 18 90.7064 18.089 90.892 18.267C91.0814 18.4451 91.1761 18.6591 91.1761 18.9091C91.1761 19.1591 91.0814 19.3731 90.892 19.5511C90.7064 19.7292 90.483 19.8182 90.2216 19.8182ZM96.8594 33.4545C96.2116 33.4545 95.6548 33.3712 95.1889 33.2045C94.723 33.0417 94.3348 32.8258 94.0241 32.5568C93.7173 32.2917 93.473 32.0076 93.2912 31.7045L94.3594 30.9545C94.4806 31.1136 94.634 31.2955 94.8196 31.5C95.0052 31.7083 95.259 31.8883 95.581 32.0398C95.9067 32.1951 96.3329 32.2727 96.8594 32.2727C97.5639 32.2727 98.1454 32.1023 98.6037 31.7614C99.062 31.4205 99.2912 30.8864 99.2912 30.1591V28.3864H99.1776C99.0791 28.5455 98.9389 28.7424 98.7571 28.9773C98.5791 29.2083 98.3215 29.4148 97.9844 29.5966C97.651 29.7746 97.2003 29.8636 96.6321 29.8636C95.9276 29.8636 95.295 29.697 94.7344 29.3636C94.1776 29.0303 93.7363 28.5455 93.4105 27.9091C93.0885 27.2727 92.9276 26.5 92.9276 25.5909C92.9276 24.697 93.0848 23.9186 93.3991 23.2557C93.7135 22.589 94.151 22.0739 94.7116 21.7102C95.2723 21.3428 95.92 21.1591 96.6548 21.1591C97.223 21.1591 97.6738 21.2538 98.0071 21.4432C98.3442 21.6288 98.6018 21.8409 98.7798 22.0795C98.9616 22.3144 99.1018 22.5076 99.2003 22.6591H99.3366V21.2727H100.632V30.25C100.632 31 100.462 31.6098 100.121 32.0795C99.7836 32.553 99.3291 32.8996 98.7571 33.1193C98.1889 33.3428 97.5563 33.4545 96.8594 33.4545ZM96.8139 28.6591C97.3518 28.6591 97.8063 28.536 98.1776 28.2898C98.5488 28.0436 98.831 27.6894 99.0241 27.2273C99.2173 26.7652 99.3139 26.2121 99.3139 25.5682C99.3139 24.9394 99.2192 24.3845 99.0298 23.9034C98.8404 23.4223 98.5601 23.0455 98.1889 22.7727C97.8177 22.5 97.3594 22.3636 96.8139 22.3636C96.2457 22.3636 95.7723 22.5076 95.3935 22.7955C95.0185 23.0833 94.7363 23.4697 94.5469 23.9545C94.3613 24.4394 94.2685 24.9773 94.2685 25.5682C94.2685 26.1742 94.3632 26.7102 94.5526 27.1761C94.7457 27.6383 95.0298 28.0019 95.4048 28.267C95.7836 28.5284 96.2533 28.6591 96.8139 28.6591ZM108.587 26.4318V21.2727H109.928V30H108.587V28.5227H108.496C108.291 28.9659 107.973 29.3428 107.541 29.6534C107.109 29.9602 106.564 30.1136 105.905 30.1136C105.359 30.1136 104.875 29.9943 104.45 29.7557C104.026 29.5133 103.693 29.1496 103.45 28.6648C103.208 28.1761 103.087 27.5606 103.087 26.8182V21.2727H104.428V26.7273C104.428 27.3636 104.606 27.8712 104.962 28.25C105.321 28.6288 105.78 28.8182 106.337 28.8182C106.67 28.8182 107.009 28.733 107.354 28.5625C107.702 28.392 107.994 28.1307 108.229 27.7784C108.467 27.4261 108.587 26.9773 108.587 26.4318ZM112.384 30V21.2727H113.679V22.5909H113.77C113.929 22.1591 114.217 21.8087 114.634 21.5398C115.05 21.2708 115.52 21.1364 116.043 21.1364C116.141 21.1364 116.264 21.1383 116.412 21.142C116.56 21.1458 116.671 21.1515 116.747 21.1591V22.5227C116.702 22.5114 116.598 22.4943 116.435 22.4716C116.276 22.4451 116.107 22.4318 115.929 22.4318C115.505 22.4318 115.126 22.5208 114.793 22.6989C114.463 22.8731 114.202 23.1155 114.009 23.4261C113.819 23.733 113.724 24.0833 113.724 24.4773V30H112.384ZM120.905 30.2045C120.352 30.2045 119.85 30.1004 119.399 29.892C118.948 29.6799 118.59 29.375 118.325 28.9773C118.06 28.5758 117.928 28.0909 117.928 27.5227C117.928 27.0227 118.026 26.6174 118.223 26.3068C118.42 25.9924 118.683 25.7462 119.013 25.5682C119.342 25.3902 119.706 25.2576 120.104 25.1705C120.505 25.0795 120.909 25.0076 121.314 24.9545C121.844 24.8864 122.274 24.8352 122.604 24.8011C122.937 24.7633 123.179 24.7008 123.331 24.6136C123.486 24.5265 123.564 24.375 123.564 24.1591V24.1136C123.564 23.553 123.411 23.1174 123.104 22.8068C122.801 22.4962 122.34 22.3409 121.723 22.3409C121.083 22.3409 120.581 22.4811 120.217 22.7614C119.854 23.0417 119.598 23.3409 119.45 23.6591L118.178 23.2045C118.405 22.6742 118.708 22.2614 119.087 21.9659C119.469 21.6667 119.886 21.4583 120.337 21.3409C120.791 21.2197 121.238 21.1591 121.678 21.1591C121.958 21.1591 122.28 21.1932 122.643 21.2614C123.011 21.3258 123.365 21.4602 123.706 21.6648C124.051 21.8693 124.337 22.178 124.564 22.5909C124.791 23.0038 124.905 23.5568 124.905 24.25V30H123.564V28.8182H123.496C123.405 29.0076 123.253 29.2102 123.041 29.4261C122.829 29.642 122.547 29.8258 122.195 29.9773C121.842 30.1288 121.412 30.2045 120.905 30.2045ZM121.109 29C121.64 29 122.087 28.8958 122.45 28.6875C122.818 28.4792 123.094 28.2102 123.28 27.8807C123.469 27.5511 123.564 27.2045 123.564 26.8409V25.6136C123.507 25.6818 123.382 25.7443 123.189 25.8011C123 25.8542 122.78 25.9015 122.53 25.9432C122.284 25.9811 122.043 26.0152 121.808 26.0455C121.577 26.072 121.39 26.0947 121.246 26.1136C120.897 26.1591 120.571 26.233 120.268 26.3352C119.969 26.4337 119.727 26.5833 119.541 26.7841C119.359 26.9811 119.268 27.25 119.268 27.5909C119.268 28.0568 119.441 28.4091 119.786 28.6477C120.134 28.8826 120.575 29 121.109 29ZM130.898 30.1818C130.08 30.1818 129.375 29.9886 128.784 29.6023C128.193 29.2159 127.739 28.6837 127.42 28.0057C127.102 27.3277 126.943 26.553 126.943 25.6818C126.943 24.7955 127.106 24.0133 127.432 23.3352C127.761 22.6534 128.22 22.1212 128.807 21.7386C129.398 21.3523 130.087 21.1591 130.875 21.1591C131.489 21.1591 132.042 21.2727 132.534 21.5C133.027 21.7273 133.43 22.0455 133.744 22.4545C134.059 22.8636 134.254 23.3409 134.33 23.8864H132.989C132.886 23.4886 132.659 23.1364 132.307 22.8295C131.958 22.5189 131.489 22.3636 130.898 22.3636C130.375 22.3636 129.917 22.5 129.523 22.7727C129.133 23.0417 128.828 23.4223 128.608 23.9148C128.392 24.4034 128.284 24.9773 128.284 25.6364C128.284 26.3106 128.39 26.8977 128.602 27.3977C128.818 27.8977 129.121 28.286 129.511 28.5625C129.905 28.839 130.367 28.9773 130.898 28.9773C131.246 28.9773 131.562 28.9167 131.847 28.7955C132.131 28.6742 132.371 28.5 132.568 28.2727C132.765 28.0455 132.905 27.7727 132.989 27.4545H134.33C134.254 27.9697 134.066 28.4337 133.767 28.8466C133.472 29.2557 133.08 29.5814 132.591 29.8239C132.106 30.0625 131.542 30.1818 130.898 30.1818ZM130.261 29.9545H131.375L131.284 30.4091C131.58 30.4545 131.85 30.5777 132.097 30.7784C132.343 30.983 132.466 31.3068 132.466 31.75C132.466 32.2386 132.263 32.6364 131.858 32.9432C131.456 33.2538 130.864 33.4091 130.08 33.4091L130.034 32.5227C130.386 32.5227 130.678 32.4659 130.909 32.3523C131.144 32.2424 131.261 32.0568 131.261 31.7955C131.261 31.5341 131.165 31.3561 130.972 31.2614C130.778 31.1667 130.466 31.1023 130.034 31.0682L130.261 29.9545ZM139.835 30.1818C139.047 30.1818 138.356 29.9943 137.761 29.6193C137.17 29.2443 136.708 28.7197 136.375 28.0455C136.045 27.3712 135.881 26.5833 135.881 25.6818C135.881 24.7727 136.045 23.9792 136.375 23.3011C136.708 22.6231 137.17 22.0966 137.761 21.7216C138.356 21.3466 139.047 21.1591 139.835 21.1591C140.623 21.1591 141.313 21.3466 141.903 21.7216C142.498 22.0966 142.96 22.6231 143.29 23.3011C143.623 23.9792 143.79 24.7727 143.79 25.6818C143.79 26.5833 143.623 27.3712 143.29 28.0455C142.96 28.7197 142.498 29.2443 141.903 29.6193C141.313 29.9943 140.623 30.1818 139.835 30.1818ZM139.835 28.9773C140.434 28.9773 140.926 28.8239 141.312 28.517C141.699 28.2102 141.985 27.8068 142.17 27.3068C142.356 26.8068 142.449 26.2652 142.449 25.6818C142.449 25.0985 142.356 24.5549 142.17 24.0511C141.985 23.5473 141.699 23.1402 141.312 22.8295C140.926 22.5189 140.434 22.3636 139.835 22.3636C139.237 22.3636 138.744 22.5189 138.358 22.8295C137.972 23.1402 137.686 23.5473 137.5 24.0511C137.314 24.5549 137.222 25.0985 137.222 25.6818C137.222 26.2652 137.314 26.8068 137.5 27.3068C137.686 27.8068 137.972 28.2102 138.358 28.517C138.744 28.8239 139.237 28.9773 139.835 28.9773ZM138.085 20.2273L137.04 20.1818C137.04 19.6023 137.205 19.1288 137.534 18.7614C137.867 18.3902 138.278 18.2045 138.767 18.2045C138.983 18.2045 139.174 18.2424 139.341 18.3182C139.508 18.3902 139.667 18.4735 139.818 18.5682C139.97 18.6629 140.125 18.7481 140.284 18.8239C140.447 18.8958 140.631 18.9318 140.835 18.9318C141.051 18.9318 141.233 18.8485 141.381 18.6818C141.532 18.5114 141.608 18.3068 141.608 18.0682L142.631 18.1591C142.631 18.75 142.464 19.2197 142.131 19.5682C141.801 19.9167 141.392 20.0909 140.903 20.0909C140.642 20.0909 140.426 20.0549 140.256 19.983C140.085 19.9072 139.934 19.822 139.801 19.7273C139.669 19.6326 139.528 19.5492 139.381 19.4773C139.233 19.4015 139.051 19.3636 138.835 19.3636C138.619 19.3636 138.439 19.4489 138.295 19.6193C138.155 19.786 138.085 19.9886 138.085 20.2273ZM149.496 30.1818C148.655 30.1818 147.929 29.9962 147.32 29.625C146.714 29.25 146.246 28.7273 145.916 28.0568C145.59 27.3826 145.428 26.5985 145.428 25.7045C145.428 24.8106 145.59 24.0227 145.916 23.3409C146.246 22.6553 146.704 22.1212 147.291 21.7386C147.882 21.3523 148.571 21.1591 149.359 21.1591C149.814 21.1591 150.263 21.2348 150.706 21.3864C151.149 21.5379 151.553 21.7841 151.916 22.125C152.28 22.4621 152.57 22.9091 152.786 23.4659C153.001 24.0227 153.109 24.7083 153.109 25.5227V26.0909H146.382V24.9318H151.746C151.746 24.4394 151.647 24 151.45 23.6136C151.257 23.2273 150.981 22.9223 150.621 22.6989C150.265 22.4754 149.844 22.3636 149.359 22.3636C148.825 22.3636 148.363 22.4962 147.973 22.7614C147.587 23.0227 147.289 23.3636 147.081 23.7841C146.873 24.2045 146.768 24.6553 146.768 25.1364V25.9091C146.768 26.5682 146.882 27.1269 147.109 27.5852C147.34 28.0398 147.661 28.3864 148.07 28.625C148.479 28.8598 148.954 28.9773 149.496 28.9773C149.848 28.9773 150.166 28.928 150.45 28.8295C150.738 28.7273 150.986 28.5758 151.195 28.375C151.403 28.1705 151.564 27.9167 151.678 27.6136L152.973 27.9773C152.837 28.4167 152.607 28.803 152.286 29.1364C151.964 29.4659 151.566 29.7235 151.092 29.9091C150.619 30.0909 150.087 30.1818 149.496 30.1818ZM161.331 23.2273L160.126 23.5682C160.051 23.3674 159.939 23.1723 159.791 22.983C159.647 22.7898 159.45 22.6307 159.2 22.5057C158.95 22.3807 158.63 22.3182 158.24 22.3182C157.706 22.3182 157.261 22.4413 156.905 22.6875C156.553 22.9299 156.376 23.2386 156.376 23.6136C156.376 23.947 156.498 24.2102 156.74 24.4034C156.982 24.5966 157.361 24.7576 157.876 24.8864L159.172 25.2045C159.952 25.3939 160.534 25.6837 160.916 26.0739C161.299 26.4602 161.49 26.9583 161.49 27.5682C161.49 28.0682 161.346 28.5152 161.058 28.9091C160.774 29.303 160.376 29.6136 159.865 29.8409C159.354 30.0682 158.759 30.1818 158.081 30.1818C157.191 30.1818 156.454 29.9886 155.871 29.6023C155.287 29.2159 154.918 28.6515 154.763 27.9091L156.036 27.5909C156.157 28.0606 156.386 28.4129 156.723 28.6477C157.064 28.8826 157.509 29 158.058 29C158.683 29 159.179 28.8674 159.547 28.6023C159.918 28.3333 160.104 28.0114 160.104 27.6364C160.104 27.3333 159.998 27.0795 159.786 26.875C159.573 26.6667 159.248 26.5114 158.808 26.4091L157.354 26.0682C156.554 25.8788 155.967 25.5852 155.592 25.1875C155.221 24.786 155.036 24.2841 155.036 23.6818C155.036 23.1894 155.174 22.7538 155.45 22.375C155.731 21.9962 156.111 21.6989 156.592 21.483C157.077 21.267 157.626 21.1591 158.24 21.1591C159.104 21.1591 159.782 21.3485 160.274 21.7273C160.77 22.1061 161.123 22.6061 161.331 23.2273Z" fill="#454545"/>
</g>
</svg>
