<svg width="104" height="41" viewBox="0 0 104 41" fill="none" xmlns="http://www.w3.org/2000/svg">
<path d="M5.02 6.09C5.02 6.51667 4.91667 6.88 4.71 7.18C4.50333 7.47333 4.20667 7.7 3.82 7.86C3.44 8.02 2.99 8.1 2.47 8.1C2.20333 8.1 1.94667 8.08667 1.7 8.06C1.46 8.03333 1.24 7.99667 1.04 7.95C0.84 7.89667 0.663333 7.83333 0.51 7.76V6.9C0.75 7.00667 1.04667 7.10333 1.4 7.19C1.76 7.27667 2.13 7.32 2.51 7.32C2.86333 7.32 3.16 7.27333 3.4 7.18C3.64 7.08667 3.82 6.95333 3.94 6.78C4.06 6.60667 4.12 6.40333 4.12 6.17C4.12 5.93667 4.07 5.74 3.97 5.58C3.87 5.42 3.69667 5.27333 3.45 5.14C3.21 5 2.87333 4.85333 2.44 4.7C2.13333 4.58667 1.86333 4.46667 1.63 4.34C1.40333 4.20667 1.21333 4.05667 1.06 3.89C0.906667 3.72333 0.79 3.53333 0.71 3.32C0.636667 3.10667 0.6 2.86 0.6 2.58C0.6 2.2 0.696667 1.87667 0.89 1.61C1.08333 1.33667 1.35 1.12667 1.69 0.98C2.03667 0.833333 2.43333 0.76 2.88 0.76C3.27333 0.76 3.63333 0.796666 3.96 0.869999C4.28667 0.943333 4.58333 1.04 4.85 1.16L4.57 1.93C4.32333 1.82333 4.05333 1.73333 3.76 1.66C3.47333 1.58667 3.17333 1.55 2.86 1.55C2.56 1.55 2.31 1.59333 2.11 1.68C1.91 1.76667 1.76 1.89 1.66 2.05C1.56 2.20333 1.51 2.38333 1.51 2.59C1.51 2.83 1.56 3.03 1.66 3.19C1.76 3.35 1.92333 3.49333 2.15 3.62C2.37667 3.74667 2.68333 3.88333 3.07 4.03C3.49 4.18333 3.84333 4.35 4.13 4.53C4.42333 4.70333 4.64333 4.91333 4.79 5.16C4.94333 5.40667 5.02 5.71667 5.02 6.09ZM10.4483 8H6.45828V0.86H10.4483V1.65H7.35828V3.88H10.2683V4.66H7.35828V7.21H10.4483V8ZM15.0749 1.55C14.6949 1.55 14.3516 1.61667 14.0449 1.75C13.7383 1.87667 13.4783 2.06667 13.2649 2.32C13.0516 2.56667 12.8883 2.87 12.7749 3.23C12.6616 3.58333 12.6049 3.98333 12.6049 4.43C12.6049 5.01667 12.6949 5.52667 12.8749 5.96C13.0616 6.39333 13.3349 6.72667 13.6949 6.96C14.0616 7.19333 14.5183 7.31 15.0649 7.31C15.3783 7.31 15.6749 7.28333 15.9549 7.23C16.2349 7.17667 16.5083 7.11 16.7749 7.03V7.81C16.5083 7.91 16.2316 7.98333 15.9449 8.03C15.6649 8.07667 15.3283 8.1 14.9349 8.1C14.2083 8.1 13.6016 7.95 13.1149 7.65C12.6283 7.35 12.2616 6.92333 12.0149 6.37C11.7749 5.81667 11.6549 5.16667 11.6549 4.42C11.6549 3.88 11.7283 3.38667 11.8749 2.94C12.0283 2.49333 12.2483 2.10667 12.5349 1.78C12.8283 1.45333 13.1883 1.20333 13.6149 1.03C14.0416 0.85 14.5316 0.76 15.0849 0.76C15.4516 0.76 15.8049 0.796666 16.1449 0.869999C16.4849 0.943333 16.7883 1.04667 17.0549 1.18L16.6949 1.94C16.4749 1.84 16.2283 1.75 15.9549 1.67C15.6883 1.59 15.3949 1.55 15.0749 1.55ZM20.5933 8H19.6933V1.65H17.4633V0.86H22.8133V1.65H20.5933V8ZM25.8999 8H23.3199V7.48L24.1599 7.29V1.58L23.3199 1.38V0.86H25.8999V1.38L25.0599 1.58V7.29L25.8999 7.48V8ZM5.02 21.09C5.02 21.5167 4.91667 21.88 4.71 22.18C4.50333 22.4733 4.20667 22.7 3.82 22.86C3.44 23.02 2.99 23.1 2.47 23.1C2.20333 23.1 1.94667 23.0867 1.7 23.06C1.46 23.0333 1.24 22.9967 1.04 22.95C0.84 22.8967 0.663333 22.8333 0.51 22.76V21.9C0.75 22.0067 1.04667 22.1033 1.4 22.19C1.76 22.2767 2.13 22.32 2.51 22.32C2.86333 22.32 3.16 22.2733 3.4 22.18C3.64 22.0867 3.82 21.9533 3.94 21.78C4.06 21.6067 4.12 21.4033 4.12 21.17C4.12 20.9367 4.07 20.74 3.97 20.58C3.87 20.42 3.69667 20.2733 3.45 20.14C3.21 20 2.87333 19.8533 2.44 19.7C2.13333 19.5867 1.86333 19.4667 1.63 19.34C1.40333 19.2067 1.21333 19.0567 1.06 18.89C0.906667 18.7233 0.79 18.5333 0.71 18.32C0.636667 18.1067 0.6 17.86 0.6 17.58C0.6 17.2 0.696667 16.8767 0.89 16.61C1.08333 16.3367 1.35 16.1267 1.69 15.98C2.03667 15.8333 2.43333 15.76 2.88 15.76C3.27333 15.76 3.63333 15.7967 3.96 15.87C4.28667 15.9433 4.58333 16.04 4.85 16.16L4.57 16.93C4.32333 16.8233 4.05333 16.7333 3.76 16.66C3.47333 16.5867 3.17333 16.55 2.86 16.55C2.56 16.55 2.31 16.5933 2.11 16.68C1.91 16.7667 1.76 16.89 1.66 17.05C1.56 17.2033 1.51 17.3833 1.51 17.59C1.51 17.83 1.56 18.03 1.66 18.19C1.76 18.35 1.92333 18.4933 2.15 18.62C2.37667 18.7467 2.68333 18.8833 3.07 19.03C3.49 19.1833 3.84333 19.35 4.13 19.53C4.42333 19.7033 4.64333 19.9133 4.79 20.16C4.94333 20.4067 5.02 20.7167 5.02 21.09ZM8.40828 17.54C8.86828 17.54 9.26161 17.64 9.58828 17.84C9.92161 18.04 10.1749 18.3233 10.3483 18.69C10.5283 19.05 10.6183 19.4733 10.6183 19.96V20.49H6.94828C6.96161 21.0967 7.11495 21.56 7.40828 21.88C7.70828 22.1933 8.12495 22.35 8.65828 22.35C8.99828 22.35 9.29828 22.32 9.55828 22.26C9.82495 22.1933 10.0983 22.1 10.3783 21.98V22.75C10.1049 22.87 9.83495 22.9567 9.56828 23.01C9.30161 23.07 8.98495 23.1 8.61828 23.1C8.11161 23.1 7.66161 22.9967 7.26828 22.79C6.88161 22.5833 6.57828 22.2767 6.35828 21.87C6.14495 21.4567 6.03828 20.9533 6.03828 20.36C6.03828 19.7733 6.13495 19.27 6.32828 18.85C6.52828 18.43 6.80495 18.1067 7.15828 17.88C7.51828 17.6533 7.93495 17.54 8.40828 17.54ZM8.39828 18.26C7.97828 18.26 7.64495 18.3967 7.39828 18.67C7.15828 18.9367 7.01495 19.31 6.96828 19.79H9.69828C9.69828 19.4833 9.65161 19.2167 9.55828 18.99C9.46495 18.7633 9.32161 18.5867 9.12828 18.46C8.94161 18.3267 8.69828 18.26 8.39828 18.26ZM14.1328 23.1C13.6595 23.1 13.2361 23.0033 12.8628 22.81C12.4961 22.6167 12.2061 22.3167 11.9928 21.91C11.7861 21.5033 11.6828 20.9833 11.6828 20.35C11.6828 19.69 11.7928 19.1533 12.0128 18.74C12.2328 18.3267 12.5295 18.0233 12.9028 17.83C13.2828 17.6367 13.7128 17.54 14.1928 17.54C14.4661 17.54 14.7295 17.57 14.9828 17.63C15.2361 17.6833 15.4428 17.75 15.6028 17.83L15.3328 18.56C15.1728 18.5 14.9861 18.4433 14.7728 18.39C14.5595 18.3367 14.3595 18.31 14.1728 18.31C13.8128 18.31 13.5161 18.3867 13.2828 18.54C13.0495 18.6933 12.8761 18.92 12.7628 19.22C12.6495 19.52 12.5928 19.8933 12.5928 20.34C12.5928 20.7667 12.6495 21.13 12.7628 21.43C12.8761 21.73 13.0461 21.9567 13.2728 22.11C13.4995 22.2633 13.7828 22.34 14.1228 22.34C14.4161 22.34 14.6728 22.31 14.8928 22.25C15.1195 22.19 15.3261 22.1167 15.5128 22.03V22.81C15.3328 22.9033 15.1328 22.9733 14.9128 23.02C14.6995 23.0733 14.4395 23.1 14.1328 23.1ZM19.2875 17.54C19.3875 17.54 19.4942 17.5467 19.6075 17.56C19.7275 17.5667 19.8308 17.58 19.9175 17.6L19.8075 18.41C19.7208 18.39 19.6242 18.3733 19.5175 18.36C19.4175 18.3467 19.3208 18.34 19.2275 18.34C19.0208 18.34 18.8242 18.3833 18.6375 18.47C18.4508 18.5567 18.2842 18.68 18.1375 18.84C17.9908 18.9933 17.8742 19.18 17.7875 19.4C17.7075 19.62 17.6675 19.8667 17.6675 20.14V23H16.7875V17.64H17.5075L17.6075 18.62H17.6475C17.7608 18.42 17.8975 18.24 18.0575 18.08C18.2175 17.9133 18.4008 17.7833 18.6075 17.69C18.8142 17.59 19.0408 17.54 19.2875 17.54ZM22.793 17.54C23.253 17.54 23.6464 17.64 23.973 17.84C24.3064 18.04 24.5597 18.3233 24.733 18.69C24.913 19.05 25.003 19.4733 25.003 19.96V20.49H21.333C21.3464 21.0967 21.4997 21.56 21.793 21.88C22.093 22.1933 22.5097 22.35 23.043 22.35C23.383 22.35 23.683 22.32 23.943 22.26C24.2097 22.1933 24.483 22.1 24.763 21.98V22.75C24.4897 22.87 24.2197 22.9567 23.953 23.01C23.6864 23.07 23.3697 23.1 23.003 23.1C22.4964 23.1 22.0464 22.9967 21.653 22.79C21.2664 22.5833 20.963 22.2767 20.743 21.87C20.5297 21.4567 20.423 20.9533 20.423 20.36C20.423 19.7733 20.5197 19.27 20.713 18.85C20.913 18.43 21.1897 18.1067 21.543 17.88C21.903 17.6533 22.3197 17.54 22.793 17.54ZM22.783 18.26C22.363 18.26 22.0297 18.3967 21.783 18.67C21.543 18.9367 21.3997 19.31 21.353 19.79H24.083C24.083 19.4833 24.0364 19.2167 23.943 18.99C23.8497 18.7633 23.7064 18.5867 23.513 18.46C23.3264 18.3267 23.083 18.26 22.783 18.26ZM28.1576 22.38C28.2909 22.38 28.4276 22.37 28.5676 22.35C28.7076 22.3233 28.8209 22.2967 28.9076 22.27V22.94C28.8142 22.9867 28.6809 23.0233 28.5076 23.05C28.3342 23.0833 28.1676 23.1 28.0076 23.1C27.7276 23.1 27.4676 23.0533 27.2276 22.96C26.9942 22.86 26.8042 22.69 26.6576 22.45C26.5109 22.21 26.4376 21.8733 26.4376 21.44V18.32H25.6776V17.9L26.4476 17.55L26.7976 16.41H27.3176V17.64H28.8676V18.32H27.3176V21.42C27.3176 21.7467 27.3942 21.99 27.5476 22.15C27.7076 22.3033 27.9109 22.38 28.1576 22.38ZM32.0109 17.55C32.6642 17.55 33.1475 17.6933 33.4609 17.98C33.7742 18.2667 33.9309 18.7233 33.9309 19.35V23H33.2909L33.1209 22.24H33.0809C32.9275 22.4333 32.7675 22.5967 32.6009 22.73C32.4409 22.8567 32.2542 22.95 32.0409 23.01C31.8342 23.07 31.5809 23.1 31.2809 23.1C30.9609 23.1 30.6709 23.0433 30.4109 22.93C30.1575 22.8167 29.9575 22.6433 29.8109 22.41C29.6642 22.17 29.5909 21.87 29.5909 21.51C29.5909 20.9767 29.8009 20.5667 30.2209 20.28C30.6409 19.9867 31.2875 19.8267 32.1609 19.8L33.0709 19.77V19.45C33.0709 19.0033 32.9742 18.6933 32.7809 18.52C32.5875 18.3467 32.3142 18.26 31.9609 18.26C31.6809 18.26 31.4142 18.3033 31.1609 18.39C30.9075 18.47 30.6709 18.5633 30.4509 18.67L30.1809 18.01C30.4142 17.8833 30.6909 17.7767 31.0109 17.69C31.3309 17.5967 31.6642 17.55 32.0109 17.55ZM32.2709 20.41C31.6042 20.4367 31.1409 20.5433 30.8809 20.73C30.6275 20.9167 30.5009 21.18 30.5009 21.52C30.5009 21.82 30.5909 22.04 30.7709 22.18C30.9575 22.32 31.1942 22.39 31.4809 22.39C31.9342 22.39 32.3109 22.2667 32.6109 22.02C32.9109 21.7667 33.0609 21.38 33.0609 20.86V20.38L32.2709 20.41ZM38.0863 17.54C38.1863 17.54 38.293 17.5467 38.4063 17.56C38.5263 17.5667 38.6297 17.58 38.7163 17.6L38.6063 18.41C38.5197 18.39 38.423 18.3733 38.3163 18.36C38.2163 18.3467 38.1197 18.34 38.0263 18.34C37.8197 18.34 37.623 18.3833 37.4363 18.47C37.2497 18.5567 37.083 18.68 36.9363 18.84C36.7897 18.9933 36.673 19.18 36.5863 19.4C36.5063 19.62 36.4663 19.8667 36.4663 20.14V23H35.5863V17.64H36.3063L36.4063 18.62H36.4463C36.5597 18.42 36.6963 18.24 36.8563 18.08C37.0163 17.9133 37.1997 17.7833 37.4063 17.69C37.613 17.59 37.8397 17.54 38.0863 17.54ZM40.5972 17.64V23H39.7172V17.64H40.5972ZM40.1672 15.63C40.3005 15.63 40.4172 15.6767 40.5172 15.77C40.6239 15.8567 40.6772 15.9967 40.6772 16.19C40.6772 16.3767 40.6239 16.5167 40.5172 16.61C40.4172 16.7033 40.3005 16.75 40.1672 16.75C40.0205 16.75 39.8972 16.7033 39.7972 16.61C39.6972 16.5167 39.6472 16.3767 39.6472 16.19C39.6472 15.9967 39.6972 15.8567 39.7972 15.77C39.8972 15.6767 40.0205 15.63 40.1672 15.63ZM44.3253 17.55C44.9786 17.55 45.462 17.6933 45.7753 17.98C46.0886 18.2667 46.2453 18.7233 46.2453 19.35V23H45.6053L45.4353 22.24H45.3953C45.242 22.4333 45.082 22.5967 44.9153 22.73C44.7553 22.8567 44.5686 22.95 44.3553 23.01C44.1486 23.07 43.8953 23.1 43.5953 23.1C43.2753 23.1 42.9853 23.0433 42.7253 22.93C42.472 22.8167 42.272 22.6433 42.1253 22.41C41.9786 22.17 41.9053 21.87 41.9053 21.51C41.9053 20.9767 42.1153 20.5667 42.5353 20.28C42.9553 19.9867 43.602 19.8267 44.4753 19.8L45.3853 19.77V19.45C45.3853 19.0033 45.2886 18.6933 45.0953 18.52C44.902 18.3467 44.6286 18.26 44.2753 18.26C43.9953 18.26 43.7286 18.3033 43.4753 18.39C43.222 18.47 42.9853 18.5633 42.7653 18.67L42.4953 18.01C42.7286 17.8833 43.0053 17.7767 43.3253 17.69C43.6453 17.5967 43.9786 17.55 44.3253 17.55ZM44.5853 20.41C43.9186 20.4367 43.4553 20.5433 43.1953 20.73C42.942 20.9167 42.8153 21.18 42.8153 21.52C42.8153 21.82 42.9053 22.04 43.0853 22.18C43.272 22.32 43.5086 22.39 43.7953 22.39C44.2486 22.39 44.6253 22.2667 44.9253 22.02C45.2253 21.7667 45.3753 21.38 45.3753 20.86V20.38L44.5853 20.41ZM52.3984 23.1C51.7318 23.1 51.1984 22.87 50.7984 22.41C50.3984 21.9433 50.1984 21.25 50.1984 20.33C50.1984 19.41 50.3984 18.7167 50.7984 18.25C51.2051 17.7767 51.7418 17.54 52.4084 17.54C52.6884 17.54 52.9318 17.5767 53.1384 17.65C53.3451 17.7167 53.5251 17.81 53.6784 17.93C53.8318 18.05 53.9618 18.1833 54.0684 18.33H54.1284C54.1218 18.2433 54.1084 18.1167 54.0884 17.95C54.0751 17.7767 54.0684 17.64 54.0684 17.54V15.4H54.9484V23H54.2384L54.1084 22.28H54.0684C53.9618 22.4333 53.8318 22.5733 53.6784 22.7C53.5251 22.82 53.3418 22.9167 53.1284 22.99C52.9218 23.0633 52.6784 23.1 52.3984 23.1ZM52.5384 22.37C53.1051 22.37 53.5018 22.2167 53.7284 21.91C53.9618 21.5967 54.0784 21.1267 54.0784 20.5V20.34C54.0784 19.6733 53.9684 19.1633 53.7484 18.81C53.5284 18.45 53.1218 18.27 52.5284 18.27C52.0551 18.27 51.6984 18.46 51.4584 18.84C51.2251 19.2133 51.1084 19.7167 51.1084 20.35C51.1084 20.99 51.2251 21.4867 51.4584 21.84C51.6984 22.1933 52.0584 22.37 52.5384 22.37ZM58.6808 17.55C59.3341 17.55 59.8174 17.6933 60.1308 17.98C60.4441 18.2667 60.6008 18.7233 60.6008 19.35V23H59.9608L59.7908 22.24H59.7508C59.5974 22.4333 59.4374 22.5967 59.2708 22.73C59.1108 22.8567 58.9241 22.95 58.7108 23.01C58.5041 23.07 58.2508 23.1 57.9508 23.1C57.6308 23.1 57.3408 23.0433 57.0808 22.93C56.8274 22.8167 56.6274 22.6433 56.4808 22.41C56.3341 22.17 56.2608 21.87 56.2608 21.51C56.2608 20.9767 56.4708 20.5667 56.8908 20.28C57.3108 19.9867 57.9574 19.8267 58.8308 19.8L59.7408 19.77V19.45C59.7408 19.0033 59.6441 18.6933 59.4508 18.52C59.2574 18.3467 58.9841 18.26 58.6308 18.26C58.3508 18.26 58.0841 18.3033 57.8308 18.39C57.5774 18.47 57.3408 18.5633 57.1208 18.67L56.8508 18.01C57.0841 17.8833 57.3608 17.7767 57.6808 17.69C58.0008 17.5967 58.3341 17.55 58.6808 17.55ZM58.9408 20.41C58.2741 20.4367 57.8108 20.5433 57.5508 20.73C57.2974 20.9167 57.1708 21.18 57.1708 21.52C57.1708 21.82 57.2608 22.04 57.4408 22.18C57.6274 22.32 57.8641 22.39 58.1508 22.39C58.6041 22.39 58.9808 22.2667 59.2808 22.02C59.5808 21.7667 59.7308 21.38 59.7308 20.86V20.38L58.9408 20.41ZM68.0339 16.55C67.6539 16.55 67.3106 16.6167 67.0039 16.75C66.6972 16.8767 66.4372 17.0667 66.2239 17.32C66.0106 17.5667 65.8472 17.87 65.7339 18.23C65.6206 18.5833 65.5639 18.9833 65.5639 19.43C65.5639 20.0167 65.6539 20.5267 65.8339 20.96C66.0206 21.3933 66.2939 21.7267 66.6539 21.96C67.0206 22.1933 67.4772 22.31 68.0239 22.31C68.3372 22.31 68.6339 22.2833 68.9139 22.23C69.1939 22.1767 69.4672 22.11 69.7339 22.03V22.81C69.4672 22.91 69.1906 22.9833 68.9039 23.03C68.6239 23.0767 68.2872 23.1 67.8939 23.1C67.1672 23.1 66.5606 22.95 66.0739 22.65C65.5872 22.35 65.2206 21.9233 64.9739 21.37C64.7339 20.8167 64.6139 20.1667 64.6139 19.42C64.6139 18.88 64.6872 18.3867 64.8339 17.94C64.9872 17.4933 65.2072 17.1067 65.4939 16.78C65.7872 16.4533 66.1472 16.2033 66.5739 16.03C67.0006 15.85 67.4906 15.76 68.0439 15.76C68.4106 15.76 68.7639 15.7967 69.1039 15.87C69.4439 15.9433 69.7472 16.0467 70.0139 16.18L69.6539 16.94C69.4339 16.84 69.1872 16.75 68.9139 16.67C68.6472 16.59 68.3539 16.55 68.0339 16.55ZM72.0523 17.64V23H71.1723V17.64H72.0523ZM71.6223 15.63C71.7556 15.63 71.8723 15.6767 71.9723 15.77C72.0789 15.8567 72.1323 15.9967 72.1323 16.19C72.1323 16.3767 72.0789 16.5167 71.9723 16.61C71.8723 16.7033 71.7556 16.75 71.6223 16.75C71.4756 16.75 71.3523 16.7033 71.2523 16.61C71.1523 16.5167 71.1023 16.3767 71.1023 16.19C71.1023 15.9967 71.1523 15.8567 71.2523 15.77C71.3523 15.6767 71.4756 15.63 71.6223 15.63ZM75.8204 17.54C76.2804 17.54 76.6737 17.64 77.0004 17.84C77.3337 18.04 77.5871 18.3233 77.7604 18.69C77.9404 19.05 78.0304 19.4733 78.0304 19.96V20.49H74.3604C74.3737 21.0967 74.5271 21.56 74.8204 21.88C75.1204 22.1933 75.5371 22.35 76.0704 22.35C76.4104 22.35 76.7104 22.32 76.9704 22.26C77.2371 22.1933 77.5104 22.1 77.7904 21.98V22.75C77.5171 22.87 77.2471 22.9567 76.9804 23.01C76.7137 23.07 76.3971 23.1 76.0304 23.1C75.5237 23.1 75.0737 22.9967 74.6804 22.79C74.2937 22.5833 73.9904 22.2767 73.7704 21.87C73.5571 21.4567 73.4504 20.9533 73.4504 20.36C73.4504 19.7733 73.5471 19.27 73.7404 18.85C73.9404 18.43 74.2171 18.1067 74.5704 17.88C74.9304 17.6533 75.3471 17.54 75.8204 17.54ZM75.8104 18.26C75.3904 18.26 75.0571 18.3967 74.8104 18.67C74.5704 18.9367 74.4271 19.31 74.3804 19.79H77.1104C77.1104 19.4833 77.0637 19.2167 76.9704 18.99C76.8771 18.7633 76.7337 18.5867 76.5404 18.46C76.3537 18.3267 76.1104 18.26 75.8104 18.26ZM76.1904 15.34C76.2704 15.4867 76.3837 15.6533 76.5304 15.84C76.6837 16.02 76.8404 16.2 77.0004 16.38C77.1671 16.5533 77.3137 16.7033 77.4404 16.83V16.94H76.8204C76.6471 16.8333 76.4671 16.7033 76.2804 16.55C76.0937 16.39 75.9104 16.22 75.7304 16.04C75.5504 16.22 75.3704 16.3867 75.1904 16.54C75.0104 16.6933 74.8337 16.8267 74.6604 16.94H74.0604V16.83C74.1871 16.6967 74.3271 16.5433 74.4804 16.37C74.6404 16.1967 74.7937 16.02 74.9404 15.84C75.0871 15.6533 75.2037 15.4867 75.2904 15.34H76.1904ZM81.9749 17.54C82.6149 17.54 83.0983 17.6967 83.4249 18.01C83.7516 18.3167 83.9149 18.8167 83.9149 19.51V23H83.0449V19.57C83.0449 19.1367 82.9483 18.8133 82.7549 18.6C82.5616 18.3867 82.2583 18.28 81.8449 18.28C81.2516 18.28 80.8416 18.4467 80.6149 18.78C80.3883 19.1133 80.2749 19.5933 80.2749 20.22V23H79.3949V17.64H80.1049L80.2349 18.37H80.2849C80.4049 18.1833 80.5516 18.03 80.7249 17.91C80.9049 17.7833 81.1016 17.69 81.3149 17.63C81.5283 17.57 81.7483 17.54 81.9749 17.54ZM87.7266 23.1C87.2532 23.1 86.8299 23.0033 86.4566 22.81C86.0899 22.6167 85.7999 22.3167 85.5866 21.91C85.3799 21.5033 85.2766 20.9833 85.2766 20.35C85.2766 19.69 85.3866 19.1533 85.6066 18.74C85.8266 18.3267 86.1232 18.0233 86.4966 17.83C86.8766 17.6367 87.3066 17.54 87.7866 17.54C88.0599 17.54 88.3232 17.57 88.5766 17.63C88.8299 17.6833 89.0366 17.75 89.1966 17.83L88.9266 18.56C88.7666 18.5 88.5799 18.4433 88.3666 18.39C88.1532 18.3367 87.9532 18.31 87.7666 18.31C87.4066 18.31 87.1099 18.3867 86.8766 18.54C86.6432 18.6933 86.4699 18.92 86.3566 19.22C86.2432 19.52 86.1866 19.8933 86.1866 20.34C86.1866 20.7667 86.2432 21.13 86.3566 21.43C86.4699 21.73 86.6399 21.9567 86.8666 22.11C87.0932 22.2633 87.3766 22.34 87.7166 22.34C88.0099 22.34 88.2666 22.31 88.4866 22.25C88.7132 22.19 88.9199 22.1167 89.1066 22.03V22.81C88.9266 22.9033 88.7266 22.9733 88.5066 23.02C88.2932 23.0733 88.0332 23.1 87.7266 23.1ZM91.2613 17.64V23H90.3813V17.64H91.2613ZM90.8313 15.63C90.9646 15.63 91.0813 15.6767 91.1813 15.77C91.2879 15.8567 91.3413 15.9967 91.3413 16.19C91.3413 16.3767 91.2879 16.5167 91.1813 16.61C91.0813 16.7033 90.9646 16.75 90.8313 16.75C90.6846 16.75 90.5613 16.7033 90.4613 16.61C90.3613 16.5167 90.3113 16.3767 90.3113 16.19C90.3113 15.9967 90.3613 15.8567 90.4613 15.77C90.5613 15.6767 90.6846 15.63 90.8313 15.63ZM94.9894 17.55C95.6427 17.55 96.126 17.6933 96.4394 17.98C96.7527 18.2667 96.9094 18.7233 96.9094 19.35V23H96.2694L96.0994 22.24H96.0594C95.906 22.4333 95.746 22.5967 95.5794 22.73C95.4194 22.8567 95.2327 22.95 95.0194 23.01C94.8127 23.07 94.5594 23.1 94.2594 23.1C93.9394 23.1 93.6494 23.0433 93.3894 22.93C93.136 22.8167 92.936 22.6433 92.7894 22.41C92.6427 22.17 92.5694 21.87 92.5694 21.51C92.5694 20.9767 92.7794 20.5667 93.1994 20.28C93.6194 19.9867 94.266 19.8267 95.1394 19.8L96.0494 19.77V19.45C96.0494 19.0033 95.9527 18.6933 95.7594 18.52C95.566 18.3467 95.2927 18.26 94.9394 18.26C94.6594 18.26 94.3927 18.3033 94.1394 18.39C93.886 18.47 93.6494 18.5633 93.4294 18.67L93.1594 18.01C93.3927 17.8833 93.6694 17.7767 93.9894 17.69C94.3094 17.5967 94.6427 17.55 94.9894 17.55ZM95.2494 20.41C94.5827 20.4367 94.1194 20.5433 93.8594 20.73C93.606 20.9167 93.4794 21.18 93.4794 21.52C93.4794 21.82 93.5694 22.04 93.7494 22.18C93.936 22.32 94.1727 22.39 94.4594 22.39C94.9127 22.39 95.2894 22.2667 95.5894 22.02C95.8894 21.7667 96.0394 21.38 96.0394 20.86V20.38L95.2494 20.41ZM3.23 38H2.33V31.65H0.1V30.86H5.45V31.65H3.23V38ZM7.77352 32.54C8.23352 32.54 8.62685 32.64 8.95352 32.84C9.28685 33.04 9.54018 33.3233 9.71352 33.69C9.89352 34.05 9.98352 34.4733 9.98352 34.96V35.49H6.31352C6.32685 36.0967 6.48018 36.56 6.77352 36.88C7.07352 37.1933 7.49018 37.35 8.02352 37.35C8.36352 37.35 8.66352 37.32 8.92352 37.26C9.19018 37.1933 9.46352 37.1 9.74352 36.98V37.75C9.47018 37.87 9.20018 37.9567 8.93352 38.01C8.66685 38.07 8.35018 38.1 7.98352 38.1C7.47685 38.1 7.02685 37.9967 6.63352 37.79C6.24685 37.5833 5.94352 37.2767 5.72352 36.87C5.51018 36.4567 5.40352 35.9533 5.40352 35.36C5.40352 34.7733 5.50018 34.27 5.69352 33.85C5.89352 33.43 6.17018 33.1067 6.52352 32.88C6.88352 32.6533 7.30018 32.54 7.77352 32.54ZM7.76352 33.26C7.34352 33.26 7.01018 33.3967 6.76352 33.67C6.52352 33.9367 6.38018 34.31 6.33352 34.79H9.06352C9.06352 34.4833 9.01685 34.2167 8.92352 33.99C8.83018 33.7633 8.68685 33.5867 8.49352 33.46C8.30685 33.3267 8.06352 33.26 7.76352 33.26ZM13.498 38.1C13.0247 38.1 12.6014 38.0033 12.228 37.81C11.8614 37.6167 11.5714 37.3167 11.358 36.91C11.1514 36.5033 11.048 35.9833 11.048 35.35C11.048 34.69 11.158 34.1533 11.378 33.74C11.598 33.3267 11.8947 33.0233 12.268 32.83C12.648 32.6367 13.078 32.54 13.558 32.54C13.8314 32.54 14.0947 32.57 14.348 32.63C14.6014 32.6833 14.808 32.75 14.968 32.83L14.698 33.56C14.538 33.5 14.3514 33.4433 14.138 33.39C13.9247 33.3367 13.7247 33.31 13.538 33.31C13.178 33.31 12.8814 33.3867 12.648 33.54C12.4147 33.6933 12.2414 33.92 12.128 34.22C12.0147 34.52 11.958 34.8933 11.958 35.34C11.958 35.7667 12.0147 36.13 12.128 36.43C12.2414 36.73 12.4114 36.9567 12.638 37.11C12.8647 37.2633 13.148 37.34 13.488 37.34C13.7814 37.34 14.038 37.31 14.258 37.25C14.4847 37.19 14.6914 37.1167 14.878 37.03V37.81C14.698 37.9033 14.498 37.9733 14.278 38.02C14.0647 38.0733 13.8047 38.1 13.498 38.1ZM18.7327 32.54C19.3727 32.54 19.8561 32.6967 20.1827 33.01C20.5094 33.3167 20.6727 33.8167 20.6727 34.51V38H19.8027V34.57C19.8027 34.1367 19.7061 33.8133 19.5127 33.6C19.3194 33.3867 19.0161 33.28 18.6027 33.28C18.0094 33.28 17.5994 33.4467 17.3727 33.78C17.1461 34.1133 17.0327 34.5933 17.0327 35.22V38H16.1527V32.64H16.8627L16.9927 33.37H17.0427C17.1627 33.1833 17.3094 33.03 17.4827 32.91C17.6627 32.7833 17.8594 32.69 18.0727 32.63C18.2861 32.57 18.5061 32.54 18.7327 32.54ZM26.9944 35.31C26.9944 35.7567 26.9344 36.1533 26.8144 36.5C26.701 36.84 26.5344 37.13 26.3144 37.37C26.101 37.61 25.8377 37.7933 25.5244 37.92C25.2177 38.04 24.8744 38.1 24.4944 38.1C24.141 38.1 23.8144 38.04 23.5144 37.92C23.2144 37.7933 22.9544 37.61 22.7344 37.37C22.5144 37.13 22.341 36.84 22.2144 36.5C22.0944 36.1533 22.0344 35.7567 22.0344 35.31C22.0344 34.7167 22.1344 34.2167 22.3344 33.81C22.5344 33.3967 22.821 33.0833 23.1944 32.87C23.5677 32.65 24.011 32.54 24.5244 32.54C25.011 32.54 25.4377 32.65 25.8044 32.87C26.1777 33.0833 26.4677 33.3967 26.6744 33.81C26.8877 34.2167 26.9944 34.7167 26.9944 35.31ZM22.9444 35.31C22.9444 35.73 22.9977 36.0967 23.1044 36.41C23.2177 36.7167 23.391 36.9533 23.6244 37.12C23.8577 37.2867 24.1544 37.37 24.5144 37.37C24.8744 37.37 25.171 37.2867 25.4044 37.12C25.6377 36.9533 25.8077 36.7167 25.9144 36.41C26.0277 36.0967 26.0844 35.73 26.0844 35.31C26.0844 34.8833 26.0277 34.52 25.9144 34.22C25.801 33.92 25.6277 33.69 25.3944 33.53C25.1677 33.3633 24.871 33.28 24.5044 33.28C23.9577 33.28 23.561 33.46 23.3144 33.82C23.0677 34.18 22.9444 34.6767 22.9444 35.31ZM29.2691 38H28.3891V30.4H29.2691V38ZM35.6272 35.31C35.6272 35.7567 35.5672 36.1533 35.4472 36.5C35.3339 36.84 35.1672 37.13 34.9472 37.37C34.7339 37.61 34.4705 37.7933 34.1572 37.92C33.8505 38.04 33.5072 38.1 33.1272 38.1C32.7739 38.1 32.4472 38.04 32.1472 37.92C31.8472 37.7933 31.5872 37.61 31.3672 37.37C31.1472 37.13 30.9739 36.84 30.8472 36.5C30.7272 36.1533 30.6672 35.7567 30.6672 35.31C30.6672 34.7167 30.7672 34.2167 30.9672 33.81C31.1672 33.3967 31.4539 33.0833 31.8272 32.87C32.2005 32.65 32.6439 32.54 33.1572 32.54C33.6439 32.54 34.0705 32.65 34.4372 32.87C34.8105 33.0833 35.1005 33.3967 35.3072 33.81C35.5205 34.2167 35.6272 34.7167 35.6272 35.31ZM31.5772 35.31C31.5772 35.73 31.6305 36.0967 31.7372 36.41C31.8505 36.7167 32.0239 36.9533 32.2572 37.12C32.4905 37.2867 32.7872 37.37 33.1472 37.37C33.5072 37.37 33.8039 37.2867 34.0372 37.12C34.2705 36.9533 34.4405 36.7167 34.5472 36.41C34.6605 36.0967 34.7172 35.73 34.7172 35.31C34.7172 34.8833 34.6605 34.52 34.5472 34.22C34.4339 33.92 34.2605 33.69 34.0272 33.53C33.8005 33.3633 33.5039 33.28 33.1372 33.28C32.5905 33.28 32.1939 33.46 31.9472 33.82C31.7005 34.18 31.5772 34.6767 31.5772 35.31ZM38.9219 32.54C39.2752 32.54 39.5919 32.6067 39.8719 32.74C40.1585 32.8733 40.4019 33.0767 40.6019 33.35H40.6519L40.7719 32.64H41.4719V38.09C41.4719 38.5967 41.3852 39.02 41.2119 39.36C41.0385 39.7067 40.7752 39.9667 40.4219 40.14C40.0685 40.3133 39.6185 40.4 39.0719 40.4C38.6852 40.4 38.3285 40.37 38.0019 40.31C37.6819 40.2567 37.3952 40.1733 37.1419 40.06V39.25C37.3152 39.3367 37.5052 39.41 37.7119 39.47C37.9185 39.5367 38.1419 39.5867 38.3819 39.62C38.6219 39.6533 38.8685 39.67 39.1219 39.67C39.5819 39.67 39.9419 39.5333 40.2019 39.26C40.4685 38.9933 40.6019 38.6267 40.6019 38.16V37.95C40.6019 37.87 40.6052 37.7567 40.6119 37.61C40.6185 37.4567 40.6252 37.35 40.6319 37.29H40.5919C40.4052 37.5633 40.1719 37.7667 39.8919 37.9C39.6185 38.0333 39.2985 38.1 38.9319 38.1C38.2385 38.1 37.6952 37.8567 37.3019 37.37C36.9152 36.8833 36.7219 36.2033 36.7219 35.33C36.7219 34.7567 36.8085 34.2633 36.9819 33.85C37.1619 33.43 37.4152 33.1067 37.7419 32.88C38.0685 32.6533 38.4619 32.54 38.9219 32.54ZM39.0419 33.28C38.7419 33.28 38.4852 33.36 38.2719 33.52C38.0652 33.68 37.9052 33.9133 37.7919 34.22C37.6852 34.5267 37.6319 34.9 37.6319 35.34C37.6319 36 37.7519 36.5067 37.9919 36.86C38.2385 37.2067 38.5952 37.38 39.0619 37.38C39.3352 37.38 39.5685 37.3467 39.7619 37.28C39.9552 37.2067 40.1152 37.0967 40.2419 36.95C40.3685 36.7967 40.4619 36.6033 40.5219 36.37C40.5819 36.1367 40.6119 35.86 40.6119 35.54V35.33C40.6119 34.8433 40.5552 34.45 40.4419 34.15C40.3352 33.85 40.1652 33.63 39.9319 33.49C39.6985 33.35 39.4019 33.28 39.0419 33.28ZM44.0542 32.64V38H43.1742V32.64H44.0542ZM43.6242 30.63C43.7576 30.63 43.8742 30.6767 43.9742 30.77C44.0809 30.8567 44.1342 30.9967 44.1342 31.19C44.1342 31.3767 44.0809 31.5167 43.9742 31.61C43.8742 31.7033 43.7576 31.75 43.6242 31.75C43.4776 31.75 43.3542 31.7033 43.2542 31.61C43.1542 31.5167 43.1042 31.3767 43.1042 31.19C43.1042 30.9967 43.1542 30.8567 43.2542 30.77C43.3542 30.6767 43.4776 30.63 43.6242 30.63ZM47.7823 32.55C48.4357 32.55 48.919 32.6933 49.2323 32.98C49.5457 33.2667 49.7023 33.7233 49.7023 34.35V38H49.0623L48.8923 37.24H48.8523C48.699 37.4333 48.539 37.5967 48.3723 37.73C48.2123 37.8567 48.0257 37.95 47.8123 38.01C47.6057 38.07 47.3523 38.1 47.0523 38.1C46.7323 38.1 46.4423 38.0433 46.1823 37.93C45.929 37.8167 45.729 37.6433 45.5823 37.41C45.4357 37.17 45.3623 36.87 45.3623 36.51C45.3623 35.9767 45.5723 35.5667 45.9923 35.28C46.4123 34.9867 47.059 34.8267 47.9323 34.8L48.8423 34.77V34.45C48.8423 34.0033 48.7457 33.6933 48.5523 33.52C48.359 33.3467 48.0857 33.26 47.7323 33.26C47.4523 33.26 47.1857 33.3033 46.9323 33.39C46.679 33.47 46.4423 33.5633 46.2223 33.67L45.9523 33.01C46.1857 32.8833 46.4623 32.7767 46.7823 32.69C47.1023 32.5967 47.4357 32.55 47.7823 32.55ZM48.0423 35.41C47.3757 35.4367 46.9123 35.5433 46.6523 35.73C46.399 35.9167 46.2723 36.18 46.2723 36.52C46.2723 36.82 46.3623 37.04 46.5423 37.18C46.729 37.32 46.9657 37.39 47.2523 37.39C47.7057 37.39 48.0823 37.2667 48.3823 37.02C48.6823 36.7667 48.8323 36.38 48.8323 35.86V35.38L48.0423 35.41ZM56.0255 32.54C56.4855 32.54 56.8788 32.64 57.2055 32.84C57.5388 33.04 57.7921 33.3233 57.9655 33.69C58.1455 34.05 58.2355 34.4733 58.2355 34.96V35.49H54.5655C54.5788 36.0967 54.7321 36.56 55.0255 36.88C55.3255 37.1933 55.7421 37.35 56.2755 37.35C56.6155 37.35 56.9155 37.32 57.1755 37.26C57.4421 37.1933 57.7155 37.1 57.9955 36.98V37.75C57.7221 37.87 57.4521 37.9567 57.1855 38.01C56.9188 38.07 56.6021 38.1 56.2355 38.1C55.7288 38.1 55.2788 37.9967 54.8855 37.79C54.4988 37.5833 54.1955 37.2767 53.9755 36.87C53.7621 36.4567 53.6555 35.9533 53.6555 35.36C53.6555 34.7733 53.7521 34.27 53.9455 33.85C54.1455 33.43 54.4221 33.1067 54.7755 32.88C55.1355 32.6533 55.5521 32.54 56.0255 32.54ZM56.0155 33.26C55.5955 33.26 55.2621 33.3967 55.0155 33.67C54.7755 33.9367 54.6321 34.31 54.5855 34.79H57.3155C57.3155 34.4833 57.2688 34.2167 57.1755 33.99C57.0821 33.7633 56.9388 33.5867 56.7455 33.46C56.5588 33.3267 56.3155 33.26 56.0155 33.26ZM64.3277 38H61.7477V37.48L62.5877 37.29V31.58L61.7477 31.38V30.86H64.3277V31.38L63.4877 31.58V37.29L64.3277 37.48V38ZM68.1663 32.54C68.8063 32.54 69.2897 32.6967 69.6163 33.01C69.943 33.3167 70.1063 33.8167 70.1063 34.51V38H69.2363V34.57C69.2363 34.1367 69.1397 33.8133 68.9463 33.6C68.753 33.3867 68.4497 33.28 68.0363 33.28C67.443 33.28 67.033 33.4467 66.8063 33.78C66.5797 34.1133 66.4663 34.5933 66.4663 35.22V38H65.5863V32.64H66.2963L66.4263 33.37H66.4763C66.5963 33.1833 66.743 33.03 66.9163 32.91C67.0963 32.7833 67.293 32.69 67.5063 32.63C67.7197 32.57 67.9397 32.54 68.1663 32.54ZM76.428 35.31C76.428 35.7567 76.368 36.1533 76.248 36.5C76.1346 36.84 75.968 37.13 75.748 37.37C75.5346 37.61 75.2713 37.7933 74.958 37.92C74.6513 38.04 74.308 38.1 73.928 38.1C73.5746 38.1 73.248 38.04 72.948 37.92C72.648 37.7933 72.388 37.61 72.168 37.37C71.948 37.13 71.7746 36.84 71.648 36.5C71.528 36.1533 71.468 35.7567 71.468 35.31C71.468 34.7167 71.568 34.2167 71.768 33.81C71.968 33.3967 72.2546 33.0833 72.628 32.87C73.0013 32.65 73.4446 32.54 73.958 32.54C74.4446 32.54 74.8713 32.65 75.238 32.87C75.6113 33.0833 75.9013 33.3967 76.108 33.81C76.3213 34.2167 76.428 34.7167 76.428 35.31ZM72.378 35.31C72.378 35.73 72.4313 36.0967 72.538 36.41C72.6513 36.7167 72.8246 36.9533 73.058 37.12C73.2913 37.2867 73.588 37.37 73.948 37.37C74.308 37.37 74.6046 37.2867 74.838 37.12C75.0713 36.9533 75.2413 36.7167 75.348 36.41C75.4613 36.0967 75.518 35.73 75.518 35.31C75.518 34.8833 75.4613 34.52 75.348 34.22C75.2346 33.92 75.0613 33.69 74.828 33.53C74.6013 33.3633 74.3046 33.28 73.938 33.28C73.3913 33.28 72.9946 33.46 72.748 33.82C72.5013 34.18 72.378 34.6767 72.378 35.31ZM78.8073 38L76.7773 32.64H77.7173L78.8573 35.8C78.9107 35.9467 78.9673 36.11 79.0273 36.29C79.0873 36.47 79.1407 36.6433 79.1873 36.81C79.234 36.97 79.2673 37.1067 79.2873 37.22H79.3273C79.354 37.1067 79.3907 36.9667 79.4373 36.8C79.4907 36.6333 79.5473 36.46 79.6073 36.28C79.674 36.1 79.7307 35.94 79.7773 35.8L80.9173 32.64H81.8573L79.8173 38H78.8073ZM84.7355 32.55C85.3888 32.55 85.8721 32.6933 86.1855 32.98C86.4988 33.2667 86.6555 33.7233 86.6555 34.35V38H86.0155L85.8455 37.24H85.8055C85.6521 37.4333 85.4921 37.5967 85.3255 37.73C85.1655 37.8567 84.9788 37.95 84.7655 38.01C84.5588 38.07 84.3055 38.1 84.0055 38.1C83.6855 38.1 83.3955 38.0433 83.1355 37.93C82.8821 37.8167 82.6821 37.6433 82.5355 37.41C82.3888 37.17 82.3155 36.87 82.3155 36.51C82.3155 35.9767 82.5255 35.5667 82.9455 35.28C83.3655 34.9867 84.0121 34.8267 84.8855 34.8L85.7955 34.77V34.45C85.7955 34.0033 85.6988 33.6933 85.5055 33.52C85.3121 33.3467 85.0388 33.26 84.6855 33.26C84.4055 33.26 84.1388 33.3033 83.8855 33.39C83.6321 33.47 83.3955 33.5633 83.1755 33.67L82.9055 33.01C83.1388 32.8833 83.4155 32.7767 83.7355 32.69C84.0555 32.5967 84.3888 32.55 84.7355 32.55ZM84.9955 35.41C84.3288 35.4367 83.8655 35.5433 83.6055 35.73C83.3521 35.9167 83.2255 36.18 83.2255 36.52C83.2255 36.82 83.3155 37.04 83.4955 37.18C83.6821 37.32 83.9188 37.39 84.2055 37.39C84.6588 37.39 85.0355 37.2667 85.3355 37.02C85.6355 36.7667 85.7855 36.38 85.7855 35.86V35.38L84.9955 35.41ZM90.4609 38.1C89.9876 38.1 89.5643 38.0033 89.1909 37.81C88.8243 37.6167 88.5343 37.3167 88.3209 36.91C88.1143 36.5033 88.0109 35.9833 88.0109 35.35C88.0109 34.69 88.1209 34.1533 88.3409 33.74C88.5609 33.3267 88.8576 33.0233 89.2309 32.83C89.6109 32.6367 90.0409 32.54 90.5209 32.54C90.7943 32.54 91.0576 32.57 91.3109 32.63C91.5643 32.6833 91.7709 32.75 91.9309 32.83L91.6609 33.56C91.5009 33.5 91.3143 33.4433 91.1009 33.39C90.8876 33.3367 90.6876 33.31 90.5009 33.31C90.1409 33.31 89.8443 33.3867 89.6109 33.54C89.3776 33.6933 89.2043 33.92 89.0909 34.22C88.9776 34.52 88.9209 34.8933 88.9209 35.34C88.9209 35.7667 88.9776 36.13 89.0909 36.43C89.2043 36.73 89.3743 36.9567 89.6009 37.11C89.8276 37.2633 90.1109 37.34 90.4509 37.34C90.7443 37.34 91.0009 37.31 91.2209 37.25C91.4476 37.19 91.6543 37.1167 91.8409 37.03V37.81C91.6609 37.9033 91.4609 37.9733 91.2409 38.02C91.0276 38.0733 90.7676 38.1 90.4609 38.1ZM91.2809 39.39C91.2809 39.6033 91.2243 39.7833 91.1109 39.93C91.0043 40.0833 90.8409 40.2 90.6209 40.28C90.4009 40.36 90.1276 40.4 89.8009 40.4C89.7009 40.4 89.6043 40.3933 89.5109 40.38C89.4243 40.3733 89.3543 40.3633 89.3009 40.35V39.8C89.3609 39.8133 89.4409 39.8233 89.5409 39.83C89.6409 39.8433 89.7376 39.85 89.8309 39.85C90.0709 39.85 90.2543 39.8167 90.3809 39.75C90.5076 39.69 90.5709 39.5767 90.5709 39.41C90.5709 39.2367 90.4809 39.11 90.3009 39.03C90.1276 38.95 89.9143 38.8933 89.6609 38.86L90.0909 38H90.6709L90.4109 38.53C90.5709 38.5633 90.7176 38.6133 90.8509 38.68C90.9843 38.7533 91.0876 38.8467 91.1609 38.96C91.2409 39.0733 91.2809 39.2167 91.2809 39.39ZM95.1456 32.55C95.799 32.55 96.2823 32.6933 96.5956 32.98C96.909 33.2667 97.0656 33.7233 97.0656 34.35V38H96.4256L96.2556 37.24H96.2156C96.0623 37.4333 95.9023 37.5967 95.7356 37.73C95.5756 37.8567 95.389 37.95 95.1756 38.01C94.969 38.07 94.7156 38.1 94.4156 38.1C94.0956 38.1 93.8056 38.0433 93.5456 37.93C93.2923 37.8167 93.0923 37.6433 92.9456 37.41C92.799 37.17 92.7256 36.87 92.7256 36.51C92.7256 35.9767 92.9356 35.5667 93.3556 35.28C93.7756 34.9867 94.4223 34.8267 95.2956 34.8L96.2056 34.77V34.45C96.2056 34.0033 96.109 33.6933 95.9156 33.52C95.7223 33.3467 95.449 33.26 95.0956 33.26C94.8156 33.26 94.549 33.3033 94.2956 33.39C94.0423 33.47 93.8056 33.5633 93.5856 33.67L93.3156 33.01C93.549 32.8833 93.8256 32.7767 94.1456 32.69C94.4656 32.5967 94.799 32.55 95.1456 32.55ZM95.4056 35.41C94.739 35.4367 94.2756 35.5433 94.0156 35.73C93.7623 35.9167 93.6356 36.18 93.6356 36.52C93.6356 36.82 93.7256 37.04 93.9056 37.18C94.0923 37.32 94.329 37.39 94.6156 37.39C95.069 37.39 95.4456 37.2667 95.7456 37.02C96.0456 36.7667 96.1956 36.38 96.1956 35.86V35.38L95.4056 35.41ZM93.2456 31.94C93.2656 31.74 93.3023 31.5633 93.3556 31.41C93.4156 31.25 93.4923 31.1167 93.5856 31.01C93.679 30.8967 93.789 30.81 93.9156 30.75C94.0423 30.69 94.1856 30.66 94.3456 30.66C94.4923 30.66 94.6323 30.69 94.7656 30.75C94.9056 30.8033 95.039 30.87 95.1656 30.95C95.2923 31.0233 95.4123 31.09 95.5256 31.15C95.6456 31.2033 95.759 31.23 95.8656 31.23C96.019 31.23 96.1356 31.1833 96.2156 31.09C96.3023 30.99 96.369 30.8433 96.4156 30.65H96.9156C96.8756 31.0367 96.7623 31.3467 96.5756 31.58C96.389 31.8133 96.139 31.93 95.8256 31.93C95.6856 31.93 95.549 31.9033 95.4156 31.85C95.2823 31.79 95.149 31.7233 95.0156 31.65C94.889 31.57 94.7656 31.5033 94.6456 31.45C94.5323 31.39 94.419 31.36 94.3056 31.36C94.1456 31.36 94.0256 31.41 93.9456 31.51C93.8656 31.6033 93.8023 31.7467 93.7556 31.94H93.2456ZM103.381 35.31C103.381 35.7567 103.321 36.1533 103.201 36.5C103.088 36.84 102.921 37.13 102.701 37.37C102.488 37.61 102.224 37.7933 101.911 37.92C101.604 38.04 101.261 38.1 100.881 38.1C100.528 38.1 100.201 38.04 99.9011 37.92C99.6011 37.7933 99.3411 37.61 99.1211 37.37C98.9011 37.13 98.7278 36.84 98.6011 36.5C98.4811 36.1533 98.4211 35.7567 98.4211 35.31C98.4211 34.7167 98.5211 34.2167 98.7211 33.81C98.9211 33.3967 99.2078 33.0833 99.5811 32.87C99.9544 32.65 100.398 32.54 100.911 32.54C101.398 32.54 101.824 32.65 102.191 32.87C102.564 33.0833 102.854 33.3967 103.061 33.81C103.274 34.2167 103.381 34.7167 103.381 35.31ZM99.3311 35.31C99.3311 35.73 99.3844 36.0967 99.4911 36.41C99.6044 36.7167 99.7778 36.9533 100.011 37.12C100.244 37.2867 100.541 37.37 100.901 37.37C101.261 37.37 101.558 37.2867 101.791 37.12C102.024 36.9533 102.194 36.7167 102.301 36.41C102.414 36.0967 102.471 35.73 102.471 35.31C102.471 34.8833 102.414 34.52 102.301 34.22C102.188 33.92 102.014 33.69 101.781 33.53C101.554 33.3633 101.258 33.28 100.891 33.28C100.344 33.28 99.9478 33.46 99.7011 33.82C99.4544 34.18 99.3311 34.6767 99.3311 35.31Z" fill="#FFFBFB"/>
</svg>
