<svg width="42" height="39" viewBox="0 0 42 39" fill="none" xmlns="http://www.w3.org/2000/svg">
<path d="M20.6776 3.09708C23.108 0.962554 26.2734 -0.142815 29.5042 0.0148116C32.735 0.172438 35.7778 1.5807 37.9889 3.94167C40.1999 6.30264 41.4058 9.43114 41.3515 12.6653C41.2971 15.8995 39.9868 18.9857 37.6976 21.2711L27.2476 31.7211L20.6736 38.2911L6.1136 23.7331L3.6536 21.2691C1.36515 18.9834 0.0555248 15.8972 0.00172528 12.6632C-0.0520743 9.42927 1.15418 6.3012 3.36533 3.94066C5.57648 1.58012 8.61914 0.172235 11.8497 0.0147992C15.0803 -0.142636 18.2474 0.962725 20.6776 3.09708Z" fill="#00388D"/>
</svg>
