<svg width="66" height="56" viewBox="0 0 66 56" fill="none" xmlns="http://www.w3.org/2000/svg">
<path d="M0 24.5V54.25C0 55.2169 0.738375 56 1.65 56H9.9V21H3.3C1.47778 21 0 22.5674 0 24.5ZM37.125 19.25H34.65V14.875C34.65 14.3916 34.2808 14 33.825 14H32.175C31.7192 14 31.35 14.3916 31.35 14.875V21.875C31.35 22.3584 31.7192 22.75 32.175 22.75H37.125C37.5808 22.75 37.95 22.3584 37.95 21.875V20.125C37.95 19.6416 37.5808 19.25 37.125 19.25ZM51.3305 12.2544L34.8305 0.587353C34.2883 0.204356 33.6514 0 33 0C32.3486 0 31.7117 0.204356 31.1695 0.587353L14.6695 12.2544C14.2176 12.5739 13.847 13.0069 13.5906 13.5148C13.3343 14.0227 13.2001 14.5898 13.2 15.1659V56H26.4V40.25C26.4 39.2831 27.1384 38.5 28.05 38.5H37.95C38.8616 38.5 39.6 39.2831 39.6 40.25V56H52.8V15.167C52.8 13.9967 52.2483 12.903 51.3305 12.2544ZM33 28C28.4439 28 24.75 24.0822 24.75 19.25C24.75 14.4178 28.4439 10.5 33 10.5C37.5561 10.5 41.25 14.4178 41.25 19.25C41.25 24.0822 37.5561 28 33 28ZM62.7 21H56.1V56H64.35C65.2616 56 66 55.2169 66 54.25V24.5C66 22.5674 64.5222 21 62.7 21Z" fill="#00388D"/>
</svg>
