<svg width="83" height="79" viewBox="0 0 83 79" fill="none" xmlns="http://www.w3.org/2000/svg">
<path d="M74.7 20.7895H58.1V8.31579C58.1 3.72963 54.3775 0 49.8 0H33.2C28.6226 0 24.9 3.72963 24.9 8.31579V29.1053H8.3C3.72255 29.1053 0 32.8349 0 37.4211V74.8421C0 75.9448 0.437231 77.0024 1.21551 77.7822C1.99378 78.5619 3.04935 79 4.15 79H78.85C79.9507 79 81.0062 78.5619 81.7845 77.7822C82.5628 77.0024 83 75.9448 83 74.8421V29.1053C83 24.5191 79.2775 20.7895 74.7 20.7895ZM8.3 37.4211H24.9V70.6842H8.3V37.4211ZM33.2 33.2632V8.31579H49.8V70.6842H33.2V33.2632ZM74.7 70.6842H58.1V29.1053H74.7V70.6842Z" fill="#00388D"/>
</svg>
