<svg width="41" height="41" viewBox="0 0 41 41" fill="none" xmlns="http://www.w3.org/2000/svg">
<path d="M20.5 3.81395C19.8697 3.8135 19.253 3.97566 18.7256 4.28054C18.1981 4.58542 17.7828 5.01975 17.5307 5.53023L16.9654 6.67442H4.31579V37.186H36.6842V6.67442H24.0346L23.4693 5.53023C23.2172 5.01975 22.8019 4.58542 22.2744 4.28054C21.747 3.97566 21.1303 3.8135 20.5 3.81395ZM14.3025 2.86047C14.9982 1.97757 15.9251 1.25636 17.0042 0.758303C18.0832 0.260243 19.2826 8.64772e-05 20.5 0C23.0679 0 25.3337 1.13274 26.6975 2.86047H41V41H0V2.86047H14.3025ZM20.5 14.3023C19.6415 14.3023 18.8182 14.6037 18.2112 15.1401C17.6042 15.6766 17.2632 16.4041 17.2632 17.1628C17.2632 17.9214 17.6042 18.649 18.2112 19.1854C18.8182 19.7219 19.6415 20.0233 20.5 20.0233C21.3585 20.0233 22.1818 19.7219 22.7888 19.1854C23.3958 18.649 23.7368 17.9214 23.7368 17.1628C23.7368 16.4041 23.3958 15.6766 22.7888 15.1401C22.1818 14.6037 21.3585 14.3023 20.5 14.3023ZM12.9474 17.1628C12.9474 16.2863 13.1427 15.4184 13.5223 14.6086C13.9018 13.7988 14.4582 13.063 15.1595 12.4433C15.8608 11.8235 16.6934 11.3319 17.6097 10.9964C18.5261 10.661 19.5082 10.4884 20.5 10.4884C21.4918 10.4884 22.4739 10.661 23.3903 10.9964C24.3066 11.3319 25.1392 11.8235 25.8405 12.4433C26.5418 13.063 27.0982 13.7988 27.4777 14.6086C27.8573 15.4184 28.0526 16.2863 28.0526 17.1628C28.0526 18.933 27.2569 20.6306 25.8405 21.8823C24.4241 23.134 22.5031 23.8372 20.5 23.8372C18.4969 23.8372 16.5759 23.134 15.1595 21.8823C13.7431 20.6306 12.9474 18.933 12.9474 17.1628ZM7.55263 33.3721C7.55263 31.349 8.46203 29.4089 10.0808 27.9783C11.6995 26.5478 13.895 25.7442 16.1842 25.7442H24.8158C27.105 25.7442 29.3005 26.5478 30.9192 27.9783C32.538 29.4089 33.4474 31.349 33.4474 33.3721V35.2791H29.1316V33.3721C29.1316 32.3606 28.6769 31.3905 27.8675 30.6752C27.0581 29.96 25.9604 29.5581 24.8158 29.5581H16.1842C15.0396 29.5581 13.9419 29.96 13.1325 30.6752C12.3231 31.3905 11.8684 32.3606 11.8684 33.3721V35.2791H7.55263V33.3721Z" fill="#00388D"/>
</svg>
