<svg width="68" height="62" viewBox="0 0 68 62" fill="none" xmlns="http://www.w3.org/2000/svg">
<path d="M65.4207 9.71739L35.1972 0.185405C34.4232 -0.0618017 33.5848 -0.0618017 32.8108 0.185405L2.58734 9.71739C1.86618 9.94338 1.23378 10.3698 0.77268 10.9411C0.311584 11.5123 0.0432149 12.2018 0.00260503 12.9195C-0.000868344 12.9821 -0.000868344 13.0447 0.00260503 13.1072V36.9372C0.00260503 37.8852 0.400637 38.7944 1.10914 39.4647C1.81764 40.1351 2.77857 40.5117 3.78054 40.5117C4.78251 40.5117 5.74344 40.1351 6.45195 39.4647C7.16045 38.7944 7.55848 37.8852 7.55848 36.9372V18.0668L15.023 20.42C12.7064 24.6156 12.018 29.4469 13.0776 34.0731C14.1372 38.6993 16.8777 42.8276 20.8222 45.7394C15.6603 48.1477 11.2918 51.8443 8.18813 56.4301C7.90864 56.8231 7.7145 57.2648 7.61701 57.7295C7.51951 58.1941 7.52061 58.6724 7.62022 59.1367C7.71983 59.6009 7.91598 60.0418 8.19727 60.4337C8.47855 60.8256 8.83936 61.1607 9.25872 61.4195C9.67807 61.6782 10.1476 61.8556 10.6401 61.9412C11.1325 62.0268 11.638 62.0189 12.1272 61.918C12.6164 61.8171 13.0795 61.6252 13.4896 61.3535C13.8997 61.0818 14.2487 60.7357 14.5162 60.3352C19.0088 53.7939 26.1333 50.0437 34.004 50.0437C41.8747 50.0437 48.9993 53.7939 53.5076 60.3352C53.7751 60.7357 54.1241 61.0818 54.5342 61.3535C54.9443 61.6252 55.4074 61.8171 55.8966 61.918C56.3858 62.0189 56.8913 62.0268 57.3837 61.9412C57.8762 61.8556 58.3457 61.6782 58.7651 61.4195C59.1844 61.1607 59.5452 60.8256 59.8265 60.4337C60.1078 60.0418 60.304 59.6009 60.4036 59.1367C60.5032 58.6724 60.5043 58.1941 60.4068 57.7295C60.3093 57.2648 60.1152 56.8231 59.8357 56.4301C56.729 51.839 52.3547 48.139 47.1859 45.7304C51.1304 42.8186 53.8709 38.6904 54.9305 34.0642C55.9901 29.438 55.3016 24.6066 52.985 20.4111L65.4207 16.4881C66.172 16.2503 66.8252 15.795 67.2881 15.1867C67.751 14.5784 68 13.8478 68 13.0983C68 12.3487 67.751 11.6181 67.2881 11.0098C66.8252 10.4015 66.172 9.94627 65.4207 9.70846V9.71739ZM34.004 7.3344L52.2798 13.1072L34.004 18.8711L15.744 13.1072L34.004 7.3344ZM47.8565 29.7882C47.8569 31.824 47.356 33.8318 46.3937 35.6526C45.4314 37.4735 44.034 39.0571 42.3123 40.2781C40.5906 41.4991 38.592 42.3239 36.4748 42.687C34.3577 43.0501 32.1803 42.9416 30.1151 42.3701C28.05 41.7985 26.154 40.7797 24.5774 39.3944C23.0008 38.009 21.787 36.2952 21.0321 34.3889C20.2772 32.4825 20.0021 30.4359 20.2285 28.4115C20.4549 26.387 21.1767 24.4403 22.3365 22.7256L32.8108 26.029C33.585 26.2751 34.423 26.2751 35.1972 26.029L45.6716 22.7256C47.1002 24.833 47.8586 27.2845 47.8565 29.7882Z" fill="#00388D"/>
</svg>
