<svg width="41" height="38" viewBox="0 0 41 38" fill="none" xmlns="http://www.w3.org/2000/svg">
<path d="M20.5 0L33.128 17.4984H7.872L20.5 0ZM20.5 6.75005L15.375 13.8536H25.625L20.5 6.75005ZM0 21.5987H18.45V38H0V21.5987ZM4.1 25.2434V34.3553H14.35V25.2434H4.1ZM31.775 25.2434C30.4158 25.2434 29.1122 25.7234 28.1511 26.5778C27.19 27.4322 26.65 28.591 26.65 29.7993C26.65 31.0077 27.19 32.1665 28.1511 33.0209C29.1122 33.8753 30.4158 34.3553 31.775 34.3553C33.1342 34.3553 34.4378 33.8753 35.3989 33.0209C36.36 32.1665 36.9 31.0077 36.9 29.7993C36.9 28.591 36.36 27.4322 35.3989 26.5778C34.4378 25.7234 33.1342 25.2434 31.775 25.2434ZM22.55 29.7993C22.55 28.7224 22.7886 27.656 23.2522 26.6611C23.7158 25.6661 24.3953 24.7621 25.2519 24.0006C26.1086 23.2391 27.1255 22.6351 28.2447 22.2229C29.364 21.8108 30.5636 21.5987 31.775 21.5987C32.9864 21.5987 34.186 21.8108 35.3053 22.2229C36.4245 22.6351 37.4414 23.2391 38.2981 24.0006C39.1547 24.7621 39.8342 25.6661 40.2978 26.6611C40.7614 27.656 41 28.7224 41 29.7993C41 31.9743 40.0281 34.0602 38.2981 35.5981C36.568 37.136 34.2216 38 31.775 38C29.3284 38 26.982 37.136 25.2519 35.5981C23.5219 34.0602 22.55 31.9743 22.55 29.7993Z" fill="#00388D"/>
</svg>
